<svg xmlns="http://www.w3.org/2000/svg" xmlns:xlink="http://www.w3.org/1999/xlink" width="1080" zoomAndPan="magnify" viewBox="0 0 810 809.999993" height="1080" preserveAspectRatio="xMidYMid meet" version="1.0"><defs><clipPath id="87c2b342a0"><path d="M 297.238281 181.910156 L 616 181.910156 L 616 501 L 297.238281 501 Z M 297.238281 181.910156 " clip-rule="nonzero"/></clipPath><clipPath id="3b99da7874"><path d="M 43.664062 519 L 713.089844 519 L 713.089844 629.476562 L 43.664062 629.476562 Z M 43.664062 519 " clip-rule="nonzero"/></clipPath><clipPath id="c691a3990d"><path d="M 133 180.289062 L 628 180.289062 L 628 493 L 133 493 Z M 133 180.289062 " clip-rule="nonzero"/></clipPath></defs><g clip-path="url(#87c2b342a0)"><path fill="#f8bd08" d="M 373.664062 292.570312 C 367.605469 294.765625 361.0625 295.964844 354.242188 295.964844 C 322.757812 295.964844 297.238281 270.445312 297.238281 238.960938 C 297.238281 207.476562 322.757812 181.957031 354.242188 181.957031 C 385.730469 181.957031 411.246094 207.476562 411.246094 238.960938 C 411.246094 246.179688 409.90625 253.082031 407.460938 259.4375 C 420.640625 252.007812 435.863281 247.769531 452.074219 247.769531 C 474.320312 247.769531 494.699219 255.75 510.503906 269.003906 C 505.085938 260.28125 501.953125 249.988281 501.953125 238.960938 C 501.953125 207.476562 527.472656 181.957031 558.957031 181.957031 C 590.441406 181.957031 615.960938 207.476562 615.960938 238.960938 C 615.960938 270.445312 590.441406 295.964844 558.957031 295.964844 C 546.53125 295.964844 535.03125 291.988281 525.664062 285.238281 C 536.601562 300.253906 543.050781 318.746094 543.050781 338.746094 C 543.050781 356.578125 537.921875 373.214844 529.058594 387.253906 L 549.605469 407.207031 C 554.457031 404.53125 560.734375 405.1875 564.898438 409.222656 L 564.90625 409.226562 L 612.042969 454.972656 C 617.144531 459.914062 617.289062 468.132812 612.304688 473.277344 L 612.300781 473.28125 L 595.289062 490.804688 L 595.285156 490.808594 C 590.347656 495.902344 582.136719 496.042969 577 491.105469 C 576.996094 491.101562 576.988281 491.09375 576.980469 491.085938 C 576.980469 491.085938 529.871094 445.34375 529.871094 445.34375 C 525.671875 441.300781 524.824219 435.046875 527.363281 430.117188 L 507.535156 410.875 C 492.183594 422.695312 472.949219 429.726562 452.074219 429.726562 C 434.484375 429.726562 418.058594 424.734375 404.140625 416.089844 C 408.667969 424.261719 411.246094 433.667969 411.246094 443.675781 C 411.246094 475.160156 385.730469 500.679688 354.242188 500.679688 C 322.757812 500.679688 297.238281 475.160156 297.238281 443.675781 C 297.238281 412.191406 322.757812 386.671875 354.242188 386.671875 C 362.832031 386.671875 370.976562 388.570312 378.28125 391.972656 C 367.46875 377.007812 361.097656 358.621094 361.097656 338.746094 C 361.097656 321.890625 365.679688 306.105469 373.664062 292.570312 Z M 392.832031 265.3125 C 397.964844 257.8125 400.964844 248.738281 400.964844 238.960938 C 400.964844 213.15625 380.050781 192.238281 354.242188 192.238281 C 328.4375 192.238281 307.519531 213.15625 307.519531 238.960938 C 307.519531 248.738281 310.523438 257.8125 315.65625 265.3125 C 319.632812 254.996094 327.628906 246.671875 337.71875 242.265625 C 333.441406 238.011719 330.789062 232.128906 330.789062 225.652344 C 330.789062 212.746094 341.339844 202.195312 354.242188 202.195312 C 367.148438 202.195312 377.699219 212.746094 377.699219 225.652344 C 377.699219 232.128906 375.042969 238.011719 370.765625 242.265625 C 380.859375 246.671875 388.851562 254.996094 392.832031 265.3125 Z M 323.726562 274.34375 C 331.914062 281.410156 342.578125 285.683594 354.242188 285.683594 C 365.910156 285.683594 376.574219 281.410156 384.761719 274.34375 C 382.027344 259.972656 369.398438 249.109375 354.242188 249.109375 C 339.085938 249.109375 326.457031 259.972656 323.726562 274.34375 Z M 523.015625 395.714844 C 520.632812 398.675781 518.070312 401.488281 515.34375 404.125 L 534.125 422.355469 L 542.046875 414.195312 Z M 354.242188 238.828125 C 361.492188 238.828125 367.417969 232.902344 367.417969 225.652344 C 367.417969 218.402344 361.492188 212.476562 354.242188 212.476562 C 346.996094 212.476562 341.070312 218.402344 341.070312 225.652344 C 341.070312 232.902344 346.996094 238.828125 354.242188 238.828125 Z M 587.910156 483.648438 L 604.921875 466.125 C 605.945312 465.066406 605.941406 463.375 604.890625 462.359375 L 604.886719 462.355469 L 557.75 416.605469 C 556.699219 415.589844 555 415.613281 553.984375 416.660156 L 553.976562 416.664062 L 536.960938 434.195312 C 536.957031 434.199219 536.957031 434.203125 536.953125 434.203125 C 535.933594 435.246094 535.957031 436.933594 537.003906 437.941406 C 537.011719 437.949219 537.019531 437.953125 537.027344 437.960938 C 537.027344 437.960938 584.128906 483.699219 584.144531 483.710938 C 585.207031 484.710938 586.890625 484.699219 587.902344 483.652344 Z M 392.832031 470.027344 C 397.964844 462.527344 400.964844 453.453125 400.964844 443.675781 C 400.964844 417.871094 380.050781 396.953125 354.242188 396.953125 C 328.4375 396.953125 307.519531 417.871094 307.519531 443.675781 C 307.519531 453.453125 310.523438 462.527344 315.65625 470.027344 C 319.632812 459.710938 327.628906 451.386719 337.71875 446.980469 C 333.441406 442.726562 330.789062 436.84375 330.789062 430.367188 C 330.789062 417.460938 341.339844 406.910156 354.242188 406.910156 C 367.148438 406.910156 377.699219 417.460938 377.699219 430.367188 C 377.699219 436.84375 375.042969 442.726562 370.765625 446.980469 C 380.859375 451.386719 388.851562 459.710938 392.832031 470.027344 Z M 323.726562 479.058594 C 331.914062 486.125 342.578125 490.398438 354.242188 490.398438 C 365.910156 490.398438 376.574219 486.125 384.761719 479.058594 C 382.027344 464.6875 369.398438 453.824219 354.242188 453.824219 C 339.085938 453.824219 326.457031 464.6875 323.726562 479.058594 Z M 354.242188 443.542969 C 361.492188 443.542969 367.417969 437.617188 367.417969 430.367188 C 367.417969 423.117188 361.492188 417.191406 354.242188 417.191406 C 346.996094 417.191406 341.070312 423.117188 341.070312 430.367188 C 341.070312 437.617188 346.996094 443.542969 354.242188 443.542969 Z M 452.074219 258.050781 C 407.503906 258.050781 371.378906 294.175781 371.378906 338.746094 C 371.378906 383.316406 407.503906 419.441406 452.074219 419.441406 C 496.644531 419.441406 532.769531 383.316406 532.769531 338.746094 C 532.769531 294.175781 496.644531 258.050781 452.074219 258.050781 Z M 452.074219 267.785156 C 491.265625 267.785156 523.035156 299.554688 523.035156 338.746094 C 523.035156 377.9375 491.265625 409.707031 452.074219 409.707031 C 412.882812 409.707031 381.113281 377.9375 381.113281 338.746094 C 381.113281 299.554688 412.882812 267.785156 452.074219 267.785156 Z M 452.074219 278.066406 C 418.5625 278.066406 391.394531 305.234375 391.394531 338.746094 C 391.394531 372.257812 418.5625 399.425781 452.074219 399.425781 C 485.585938 399.425781 512.753906 372.257812 512.753906 338.746094 C 512.753906 305.234375 485.585938 278.066406 452.074219 278.066406 Z M 442.632812 292.660156 L 461.527344 292.660156 C 464.367188 292.660156 466.667969 294.960938 466.667969 297.800781 L 466.667969 365.949219 C 466.667969 368.789062 464.367188 371.089844 461.527344 371.089844 L 442.632812 371.089844 C 439.792969 371.089844 437.492188 368.789062 437.492188 365.949219 L 437.492188 297.800781 C 437.492188 294.960938 439.792969 292.660156 442.632812 292.660156 Z M 447.773438 302.941406 C 447.773438 302.941406 447.773438 360.808594 447.773438 360.808594 C 447.773438 360.808594 456.386719 360.808594 456.386719 360.808594 C 456.386719 360.808594 456.386719 302.941406 456.386719 302.941406 Z M 477.722656 305.542969 L 496.617188 305.542969 C 499.457031 305.542969 501.757812 307.84375 501.757812 310.683594 L 501.757812 365.949219 C 501.757812 368.789062 499.457031 371.089844 496.617188 371.089844 L 477.722656 371.089844 C 474.882812 371.089844 472.582031 368.789062 472.582031 365.949219 L 472.582031 310.683594 C 472.582031 307.84375 474.882812 305.542969 477.722656 305.542969 Z M 482.863281 315.824219 C 482.863281 315.824219 482.863281 360.808594 482.863281 360.808594 L 491.476562 360.808594 C 491.476562 360.808594 491.476562 315.824219 491.476562 315.824219 Z M 407.53125 324.550781 L 426.441406 324.550781 C 429.277344 324.550781 431.582031 326.851562 431.582031 329.691406 L 431.582031 365.949219 C 431.582031 368.789062 429.277344 371.089844 426.441406 371.089844 L 407.53125 371.089844 C 404.691406 371.089844 402.390625 368.789062 402.390625 365.949219 L 402.390625 329.691406 C 402.390625 326.851562 404.691406 324.550781 407.53125 324.550781 Z M 412.671875 334.832031 L 412.671875 360.808594 L 421.300781 360.808594 L 421.300781 334.832031 Z M 597.546875 265.3125 C 602.679688 257.8125 605.679688 248.738281 605.679688 238.960938 C 605.679688 213.15625 584.765625 192.238281 558.957031 192.238281 C 533.152344 192.238281 512.234375 213.15625 512.234375 238.960938 C 512.234375 248.738281 515.238281 257.8125 520.371094 265.3125 C 524.347656 254.996094 532.34375 246.671875 542.433594 242.265625 C 538.15625 238.011719 535.5 232.128906 535.5 225.652344 C 535.5 212.746094 546.050781 202.195312 558.957031 202.195312 C 571.863281 202.195312 582.414062 212.746094 582.414062 225.652344 C 582.414062 232.128906 579.757812 238.011719 575.480469 242.265625 C 585.574219 246.671875 593.566406 254.996094 597.546875 265.3125 Z M 528.441406 274.34375 C 536.628906 281.410156 547.292969 285.683594 558.957031 285.683594 C 570.621094 285.683594 581.289062 281.410156 589.472656 274.34375 C 586.742188 259.972656 574.113281 249.109375 558.957031 249.109375 C 543.800781 249.109375 531.171875 259.972656 528.441406 274.34375 Z M 558.957031 238.828125 C 566.207031 238.828125 572.132812 232.902344 572.132812 225.652344 C 572.132812 218.402344 566.207031 212.476562 558.957031 212.476562 C 551.710938 212.476562 545.78125 218.402344 545.78125 225.652344 C 545.78125 232.902344 551.710938 238.828125 558.957031 238.828125 Z M 558.957031 238.828125 " fill-opacity="1" fill-rule="evenodd"/></g><g clip-path="url(#3b99da7874)"><path fill="#ffffff" d="M 477.382812 601.203125 L 283.136719 601.203125 C 281.800781 601.203125 280.941406 599.792969 281.558594 598.609375 L 296.511719 569.824219 C 296.816406 569.234375 297.425781 568.867188 298.085938 568.867188 L 462.429688 568.867188 C 463.09375 568.867188 463.703125 569.234375 464.007812 569.824219 L 478.960938 598.609375 C 479.578125 599.792969 478.71875 601.203125 477.382812 601.203125 Z M 712.566406 604.46875 L 632.125 524.03125 C 629.378906 521.28125 625.65625 519.738281 621.769531 519.738281 L 138.75 519.738281 C 134.863281 519.738281 131.140625 521.28125 128.390625 524.03125 L 47.953125 604.46875 C 45.203125 607.21875 43.664062 610.941406 43.664062 614.828125 C 43.664062 622.917969 50.21875 629.476562 58.308594 629.476562 L 702.210938 629.476562 C 710.296875 629.476562 716.855469 622.917969 716.855469 614.828125 C 716.855469 610.941406 715.316406 607.21875 712.566406 604.46875 " fill-opacity="1" fill-rule="nonzero"/></g><g clip-path="url(#c691a3990d)"><path fill="#ffffff" d="M 603.761719 180.449219 L 156.757812 180.449219 C 143.828125 180.449219 133.246094 191.03125 133.246094 203.964844 L 133.246094 469.351562 C 133.246094 482.285156 143.828125 492.863281 156.757812 492.863281 L 603.761719 492.863281 C 616.691406 492.863281 627.273438 482.285156 627.273438 469.351562 L 627.273438 203.964844 C 627.273438 191.03125 616.691406 180.449219 603.761719 180.449219 Z M 600.058594 207.667969 L 600.058594 465.648438 L 160.460938 465.648438 L 160.460938 207.667969 L 600.058594 207.667969 " fill-opacity="1" fill-rule="nonzero"/></g></svg>