<svg xmlns="http://www.w3.org/2000/svg" xmlns:xlink="http://www.w3.org/1999/xlink" width="1080" zoomAndPan="magnify" viewBox="0 0 810 809.999993" height="1080" preserveAspectRatio="xMidYMid meet" version="1.0"><defs><clipPath id="8e8773107f"><path d="M 364 122.125 L 383 122.125 L 383 197 L 364 197 Z M 364 122.125 " clip-rule="nonzero"/></clipPath><clipPath id="caf6907ebd"><path d="M 587 437 L 670.246094 437 L 670.246094 479 L 587 479 Z M 587 437 " clip-rule="nonzero"/></clipPath><clipPath id="ec21897f62"><path d="M 589 273 L 670.246094 273 L 670.246094 314 L 589 314 Z M 589 273 " clip-rule="nonzero"/></clipPath></defs><path fill="#f8bd08" d="M 539.835938 333.222656 C 458.867188 342.9375 392.476562 407.710938 382.761719 490.296875 C 371.425781 597.171875 455.628906 687.855469 560.886719 687.855469 C 570.601562 687.855469 580.320312 686.234375 588.414062 682.996094 C 628.898438 671.660156 646.710938 621.460938 622.421875 585.835938 C 609.46875 568.023438 624.039062 542.117188 646.710938 542.117188 L 706.625 542.117188 C 724.4375 542.117188 739.011719 527.542969 739.011719 509.730469 C 739.011719 404.472656 648.332031 320.265625 539.835938 333.222656 Z M 560.886719 655.46875 C 543.074219 655.46875 528.5 640.894531 528.5 623.082031 C 528.5 605.269531 543.074219 590.695312 560.886719 590.695312 C 578.699219 590.695312 593.273438 605.269531 593.273438 623.082031 C 593.273438 640.894531 578.699219 655.46875 560.886719 655.46875 Z M 666.144531 493.535156 C 653.1875 493.535156 641.851562 482.199219 641.851562 469.246094 C 641.851562 456.289062 653.1875 444.957031 666.144531 444.957031 C 679.097656 444.957031 690.433594 456.289062 690.433594 469.246094 C 690.433594 482.199219 679.097656 493.535156 666.144531 493.535156 Z M 601.371094 428.761719 C 588.414062 428.761719 577.082031 417.425781 577.082031 404.472656 C 577.082031 391.515625 588.414062 380.183594 601.371094 380.183594 C 614.324219 380.183594 625.660156 391.515625 625.660156 404.472656 C 625.660156 417.425781 614.324219 428.761719 601.371094 428.761719 Z M 520.402344 428.761719 C 507.449219 428.761719 496.113281 417.425781 496.113281 404.472656 C 496.113281 391.515625 507.449219 380.183594 520.402344 380.183594 C 533.359375 380.183594 544.695312 391.515625 544.695312 404.472656 C 544.695312 417.425781 533.359375 428.761719 520.402344 428.761719 Z M 455.628906 477.34375 C 442.675781 477.34375 431.339844 466.007812 431.339844 453.050781 C 431.339844 440.097656 442.675781 428.761719 455.628906 428.761719 C 468.585938 428.761719 479.921875 440.097656 479.921875 453.050781 C 479.921875 466.007812 468.585938 477.34375 455.628906 477.34375 Z M 439.4375 558.308594 C 426.480469 558.308594 415.148438 546.972656 415.148438 534.019531 C 415.148438 521.0625 426.480469 509.730469 439.4375 509.730469 C 452.390625 509.730469 463.726562 521.0625 463.726562 534.019531 C 463.726562 546.972656 452.390625 558.308594 439.4375 558.308594 Z M 439.4375 558.308594 " fill-opacity="1" fill-rule="nonzero"/><g clip-path="url(#8e8773107f)"><path fill="#ffffff" d="M 373.628906 196.152344 C 379.113281 196.152344 382.769531 192.496094 382.769531 187.011719 L 382.769531 131.261719 C 382.769531 125.777344 379.113281 122.125 373.628906 122.125 C 368.148438 122.125 364.492188 125.777344 364.492188 131.261719 L 364.492188 187.925781 C 364.492188 192.496094 368.148438 196.152344 373.628906 196.152344 Z M 373.628906 196.152344 " fill-opacity="1" fill-rule="nonzero"/></g><path fill="#ffffff" d="M 373.628906 552.585938 C 368.148438 552.585938 364.492188 556.242188 364.492188 561.722656 L 364.492188 618.386719 C 364.492188 623.871094 368.148438 627.527344 373.628906 627.527344 C 379.113281 627.527344 382.769531 623.871094 382.769531 618.386719 L 382.769531 561.722656 C 382.769531 556.242188 379.113281 552.585938 373.628906 552.585938 Z M 373.628906 552.585938 " fill-opacity="1" fill-rule="nonzero"/><path fill="#ffffff" d="M 550.933594 249.160156 L 602.113281 208.945312 C 605.769531 206.203125 606.683594 199.808594 603.941406 196.152344 C 601.199219 192.496094 594.800781 191.582031 591.144531 194.324219 L 539.964844 234.535156 C 536.308594 237.277344 535.394531 243.675781 538.136719 247.332031 C 540.878906 251.902344 546.363281 251.902344 550.933594 249.160156 Z M 550.933594 249.160156 " fill-opacity="1" fill-rule="nonzero"/><path fill="#ffffff" d="M 196.328125 499.578125 L 145.148438 538.875 C 141.492188 541.617188 140.578125 548.015625 143.320312 551.671875 C 146.0625 555.328125 152.457031 556.242188 156.113281 553.5 L 207.292969 513.285156 C 210.949219 510.542969 211.863281 504.148438 209.121094 500.492188 C 206.382812 496.835938 200.898438 496.835938 196.328125 499.578125 Z M 196.328125 499.578125 " fill-opacity="1" fill-rule="nonzero"/><path fill="#ffffff" d="M 550.933594 499.578125 C 547.277344 496.835938 540.878906 496.835938 538.136719 501.40625 C 535.394531 505.058594 535.394531 511.457031 539.964844 514.199219 L 591.144531 554.414062 C 594.800781 557.15625 601.199219 557.15625 603.941406 552.585938 C 606.683594 548.929688 606.683594 542.53125 602.113281 539.789062 Z M 550.933594 499.578125 " fill-opacity="1" fill-rule="nonzero"/><path fill="#ffffff" d="M 196.328125 249.160156 C 199.984375 251.902344 206.382812 251.902344 209.121094 247.332031 C 211.863281 243.675781 211.863281 237.277344 207.292969 234.535156 L 156.113281 194.324219 C 152.457031 191.582031 146.0625 191.582031 143.320312 196.152344 C 140.578125 200.722656 140.578125 206.203125 145.148438 208.945312 Z M 196.328125 249.160156 " fill-opacity="1" fill-rule="nonzero"/><path fill="#ffffff" d="M 464.109375 209.859375 C 468.679688 212.601562 474.164062 210.773438 476.90625 206.203125 L 505.238281 154.109375 C 507.976562 149.542969 506.148438 144.058594 501.582031 141.316406 C 497.011719 138.574219 491.527344 140.402344 488.785156 144.972656 L 460.453125 197.066406 C 457.710938 201.636719 459.539062 207.117188 464.109375 209.859375 Z M 464.109375 209.859375 " fill-opacity="1" fill-rule="nonzero"/><path fill="#ffffff" d="M 283.152344 538.875 C 278.582031 536.132812 273.097656 537.960938 270.355469 542.53125 L 242.023438 594.625 C 239.28125 599.195312 241.109375 604.679688 245.679688 607.421875 C 250.25 610.164062 255.734375 608.335938 258.476562 603.765625 L 286.808594 551.671875 C 289.546875 547.101562 287.722656 541.617188 283.152344 538.875 Z M 283.152344 538.875 " fill-opacity="1" fill-rule="nonzero"/><g clip-path="url(#caf6907ebd)"><path fill="#ffffff" d="M 667.003906 460.277344 L 600.285156 438.34375 C 595.714844 436.515625 590.230469 439.257812 588.402344 443.828125 C 586.578125 448.398438 589.316406 453.878906 593.886719 455.707031 L 660.605469 477.640625 C 665.175781 479.46875 670.65625 476.730469 672.484375 472.160156 C 674.3125 467.589844 671.570312 462.105469 667.003906 460.277344 Z M 667.003906 460.277344 " fill-opacity="1" fill-rule="nonzero"/></g><path fill="#ffffff" d="M 80.257812 288.457031 L 146.976562 310.394531 C 151.546875 312.222656 157.027344 309.480469 158.855469 304.910156 C 160.683594 300.339844 157.941406 294.855469 153.371094 293.027344 L 86.65625 271.09375 C 82.085938 269.265625 76.601562 272.007812 74.773438 276.578125 C 72.945312 281.148438 75.6875 286.632812 80.257812 288.457031 Z M 80.257812 288.457031 " fill-opacity="1" fill-rule="nonzero"/><g clip-path="url(#ec21897f62)"><path fill="#ffffff" d="M 590.230469 306.738281 C 592.058594 311.308594 596.628906 314.046875 602.113281 313.136719 L 669.742188 292.113281 C 674.3125 290.285156 677.054688 285.71875 676.140625 280.234375 C 674.3125 275.664062 669.742188 272.921875 664.261719 273.835938 L 596.628906 294.855469 C 591.144531 296.683594 588.402344 302.167969 590.230469 306.738281 Z M 590.230469 306.738281 " fill-opacity="1" fill-rule="nonzero"/></g><path fill="#ffffff" d="M 157.027344 442 C 155.199219 437.429688 150.632812 434.6875 145.148438 435.601562 L 78.429688 456.621094 C 73.859375 458.449219 71.117188 463.019531 72.03125 468.503906 C 73.859375 473.074219 78.429688 475.816406 83.914062 474.902344 L 151.546875 453.878906 C 156.113281 452.050781 158.855469 446.570312 157.027344 442 Z M 157.027344 442 " fill-opacity="1" fill-rule="nonzero"/><path fill="#ffffff" d="M 472.335938 543.445312 C 469.59375 538.875 464.109375 537.046875 459.539062 539.789062 C 454.96875 542.53125 453.140625 548.015625 455.882812 552.585938 L 483.300781 604.679688 C 486.042969 609.25 491.527344 611.078125 496.097656 608.335938 C 500.667969 605.59375 502.496094 600.109375 499.753906 595.539062 Z M 472.335938 543.445312 " fill-opacity="1" fill-rule="nonzero"/><path fill="#ffffff" d="M 274.925781 205.289062 C 277.667969 209.859375 283.152344 211.6875 287.722656 208.945312 C 292.289062 206.203125 294.117188 200.722656 291.375 196.152344 L 263.957031 144.058594 C 261.214844 139.488281 255.734375 137.660156 251.164062 140.402344 C 246.59375 143.144531 244.765625 148.628906 247.507812 153.195312 Z M 274.925781 205.289062 " fill-opacity="1" fill-rule="nonzero"/><path fill="#ffffff" d="M 373.628906 251.902344 C 242.9375 251.902344 138.75 363.402344 134.179688 367.972656 C 130.523438 371.625 130.523438 377.109375 134.179688 380.765625 C 138.75 385.335938 242.9375 496.835938 373.628906 496.835938 C 504.324219 496.835938 608.511719 385.335938 613.082031 380.765625 C 616.734375 377.109375 616.734375 371.625 613.082031 367.972656 C 608.511719 363.402344 504.324219 251.902344 373.628906 251.902344 Z M 373.628906 478.554688 C 316.050781 478.554688 269.441406 431.945312 269.441406 374.367188 C 269.441406 316.789062 316.050781 270.179688 373.628906 270.179688 C 431.207031 270.179688 477.820312 316.789062 477.820312 374.367188 C 477.820312 431.945312 431.207031 478.554688 373.628906 478.554688 Z M 288.632812 286.632812 C 265.785156 308.566406 251.164062 339.640625 251.164062 374.367188 C 251.164062 409.097656 265.785156 440.171875 288.632812 462.105469 C 221.917969 437.429688 170.738281 390.820312 154.285156 374.367188 C 170.738281 357.917969 221.917969 311.308594 288.632812 286.632812 Z M 458.625 462.105469 C 481.472656 440.171875 496.097656 409.097656 496.097656 374.367188 C 496.097656 339.640625 481.472656 308.566406 458.625 286.632812 C 525.34375 311.308594 576.523438 357.917969 592.972656 374.367188 C 576.523438 390.820312 525.34375 437.429688 458.625 462.105469 Z M 458.625 462.105469 " fill-opacity="1" fill-rule="nonzero"/><path fill="#ffffff" d="M 373.628906 304.910156 C 335.246094 304.910156 304.171875 335.984375 304.171875 374.367188 C 304.171875 412.753906 335.246094 443.828125 373.628906 443.828125 C 412.015625 443.828125 443.089844 412.753906 443.089844 374.367188 C 443.089844 335.984375 412.015625 304.910156 373.628906 304.910156 Z M 373.628906 425.546875 C 345.296875 425.546875 322.449219 402.699219 322.449219 374.367188 C 322.449219 346.035156 345.296875 323.1875 373.628906 323.1875 C 401.960938 323.1875 424.808594 346.035156 424.808594 374.367188 C 424.808594 402.699219 401.960938 425.546875 373.628906 425.546875 Z M 373.628906 425.546875 " fill-opacity="1" fill-rule="nonzero"/></svg>