<svg xmlns="http://www.w3.org/2000/svg" xmlns:xlink="http://www.w3.org/1999/xlink" width="1080" zoomAndPan="magnify" viewBox="0 0 810 809.999993" height="1080" preserveAspectRatio="xMidYMid meet" version="1.0"><defs><clipPath id="63c4843e12"><path d="M 142 101.492188 L 319 101.492188 L 319 278 L 142 278 Z M 142 101.492188 " clip-rule="nonzero"/></clipPath><clipPath id="7162390d16"><path d="M 133.894531 272 L 187 272 L 187 312 L 133.894531 312 Z M 133.894531 272 " clip-rule="nonzero"/></clipPath><clipPath id="164d71060b"><path d="M 475 513 L 670 513 L 670 705.5625 L 475 705.5625 Z M 475 513 " clip-rule="nonzero"/></clipPath><clipPath id="f38d3f392b"><path d="M 314.070312 364.574219 L 676 364.574219 L 676 558 L 314.070312 558 Z M 314.070312 364.574219 " clip-rule="nonzero"/></clipPath></defs><g clip-path="url(#63c4843e12)"><path fill="#ffffff" d="M 230.519531 277.996094 C 181.914062 277.996094 142.367188 238.449219 142.367188 189.84375 C 142.367188 141.234375 181.914062 101.695312 230.519531 101.695312 C 279.128906 101.695312 318.675781 141.242188 318.675781 189.847656 C 318.675781 238.457031 279.128906 278 230.519531 278 Z M 230.519531 114.289062 C 188.855469 114.289062 154.96875 148.183594 154.96875 189.84375 C 154.96875 231.503906 188.859375 265.394531 230.519531 265.394531 C 272.179688 265.394531 306.074219 231.503906 306.074219 189.84375 C 306.074219 148.183594 272.1875 114.289062 230.519531 114.289062 Z M 230.519531 114.289062 " fill-opacity="1" fill-rule="nonzero"/></g><path fill="#ffffff" d="M 230.519531 189.84375 C 213.160156 189.84375 199.039062 175.71875 199.039062 158.359375 C 199.039062 141 213.160156 126.875 230.519531 126.875 C 247.878906 126.875 262.003906 141 262.003906 158.359375 C 262.003906 175.71875 247.878906 189.84375 230.519531 189.84375 Z M 230.519531 139.472656 C 220.101562 139.472656 211.628906 147.945312 211.628906 158.363281 C 211.628906 168.785156 220.101562 177.257812 230.519531 177.257812 C 240.941406 177.257812 249.414062 168.785156 249.414062 158.363281 C 249.414062 147.945312 240.941406 139.472656 230.519531 139.472656 Z M 230.519531 139.472656 " fill-opacity="1" fill-rule="nonzero"/><path fill="#ffffff" d="M 172.929688 245.808594 L 162.464844 238.804688 C 177.714844 216.035156 203.148438 202.441406 230.527344 202.441406 C 257.90625 202.441406 283.3125 216.023438 298.570312 238.785156 L 288.105469 245.789062 C 275.199219 226.53125 253.675781 215.035156 230.527344 215.035156 C 207.378906 215.035156 185.828125 226.539062 172.929688 245.816406 Z M 172.929688 245.808594 " fill-opacity="1" fill-rule="nonzero"/><path fill="#ffffff" d="M 425.710938 340.957031 C 387.523438 340.957031 356.449219 309.886719 356.449219 271.695312 C 356.449219 233.507812 387.523438 202.433594 425.710938 202.433594 C 463.902344 202.433594 494.972656 233.507812 494.972656 271.695312 C 494.972656 309.886719 463.902344 340.957031 425.710938 340.957031 Z M 425.710938 215.027344 C 394.464844 215.027344 369.042969 240.449219 369.042969 271.695312 C 369.042969 302.945312 394.464844 328.363281 425.710938 328.363281 C 456.960938 328.363281 482.378906 302.945312 482.378906 271.695312 C 482.378906 240.449219 456.960938 215.027344 425.710938 215.027344 Z M 425.710938 215.027344 " fill-opacity="1" fill-rule="nonzero"/><path fill="#ffffff" d="M 425.710938 277.996094 C 411.824219 277.996094 400.527344 266.699219 400.527344 252.8125 C 400.527344 238.921875 411.824219 227.625 425.710938 227.625 C 439.601562 227.625 450.898438 238.921875 450.898438 252.8125 C 450.898438 266.699219 439.601562 277.996094 425.710938 277.996094 Z M 425.710938 240.21875 C 418.769531 240.21875 413.121094 245.871094 413.121094 252.8125 C 413.121094 259.75 418.769531 265.402344 425.710938 265.402344 C 432.652344 265.402344 438.304688 259.75 438.304688 252.8125 C 438.304688 245.871094 432.652344 240.21875 425.710938 240.21875 Z M 425.710938 240.21875 " fill-opacity="1" fill-rule="nonzero"/><path fill="#ffffff" d="M 274.597656 466.886719 C 232.929688 466.886719 199.042969 432.992188 199.042969 391.332031 C 199.042969 349.671875 232.9375 315.777344 274.597656 315.777344 C 316.257812 315.777344 350.152344 349.671875 350.152344 391.332031 C 350.152344 432.992188 316.257812 466.886719 274.597656 466.886719 Z M 274.597656 328.363281 C 239.878906 328.363281 211.636719 356.613281 211.636719 391.324219 C 211.636719 426.039062 239.886719 454.289062 274.597656 454.289062 C 309.308594 454.289062 337.558594 426.039062 337.558594 391.324219 C 337.558594 356.613281 309.308594 328.363281 274.597656 328.363281 Z M 274.597656 328.363281 " fill-opacity="1" fill-rule="nonzero"/><path fill="#ffffff" d="M 274.597656 391.324219 C 260.707031 391.324219 249.414062 380.03125 249.414062 366.140625 C 249.414062 352.253906 260.707031 340.957031 274.597656 340.957031 C 288.488281 340.957031 299.78125 352.253906 299.78125 366.140625 C 299.78125 380.03125 288.488281 391.324219 274.597656 391.324219 Z M 274.597656 353.550781 C 267.65625 353.550781 262.003906 359.199219 262.003906 366.140625 C 262.003906 373.082031 267.65625 378.734375 274.597656 378.734375 C 281.539062 378.734375 287.191406 373.082031 287.191406 366.140625 C 287.191406 359.199219 281.539062 353.550781 274.597656 353.550781 Z M 274.597656 353.550781 " fill-opacity="1" fill-rule="nonzero"/><path fill="#ffffff" d="M 223.671875 437.445312 L 214.820312 428.492188 C 230.835938 412.648438 252.066406 403.925781 274.597656 403.925781 C 297.128906 403.925781 318.347656 412.648438 334.363281 428.480469 L 325.511719 437.433594 C 311.863281 423.941406 293.789062 416.515625 274.597656 416.515625 C 255.40625 416.515625 237.320312 423.949219 223.671875 437.445312 Z M 223.671875 437.445312 " fill-opacity="1" fill-rule="nonzero"/><path fill="#ffffff" d="M 240.003906 271.585938 L 252.289062 268.8125 L 264.433594 322.617188 L 252.148438 325.390625 Z M 240.003906 271.585938 " fill-opacity="1" fill-rule="nonzero"/><path fill="#ffffff" d="M 333.441406 354.355469 L 325.878906 344.285156 L 374.328125 307.875 C 389.394531 296.558594 407.15625 290.585938 425.707031 290.585938 C 444.257812 290.585938 462.246094 296.578125 477.128906 307.902344 L 469.507812 317.925781 C 456.828125 308.28125 441.683594 303.179688 425.707031 303.179688 C 409.726562 303.179688 394.75 308.289062 381.890625 317.945312 Z M 333.441406 354.355469 " fill-opacity="1" fill-rule="nonzero"/><path fill="#ffffff" d="M 303.644531 227.34375 L 308.363281 215.660156 L 370.359375 240.683594 L 365.644531 252.367188 Z M 303.644531 227.34375 " fill-opacity="1" fill-rule="nonzero"/><g clip-path="url(#7162390d16)"><path fill="#ffffff" d="M 144.515625 311.117188 L 133.929688 304.292969 L 154.605469 272.214844 L 186.714844 292.914062 L 179.882812 303.5 L 158.371094 289.625 Z M 144.515625 311.117188 " fill-opacity="1" fill-rule="nonzero"/></g><path fill="#ffffff" d="M 150.328125 282.253906 L 162.636719 279.59375 L 179.378906 357.085938 L 167.070312 359.746094 Z M 150.328125 282.253906 " fill-opacity="1" fill-rule="nonzero"/><path fill="#ffffff" d="M 403.566406 424.304688 L 367.628906 414.683594 L 377.242188 378.785156 L 389.402344 382.039062 L 383.050781 405.777344 L 406.820312 412.144531 Z M 403.566406 424.304688 " fill-opacity="1" fill-rule="nonzero"/><path fill="#ffffff" d="M 372.175781 404.792969 L 440.339844 365.453125 L 446.636719 376.359375 L 378.46875 415.699219 Z M 372.175781 404.792969 " fill-opacity="1" fill-rule="nonzero"/><path fill="#ffffff" d="M 380.082031 184.355469 L 374.945312 172.863281 L 398.796875 162.1875 L 388.058594 138.171875 L 399.558594 133.03125 L 415.4375 168.546875 Z M 380.082031 184.355469 " fill-opacity="1" fill-rule="nonzero"/><path fill="#ffffff" d="M 330.148438 142.707031 L 334.644531 130.9375 L 409.359375 159.480469 L 404.863281 171.25 Z M 330.148438 142.707031 " fill-opacity="1" fill-rule="nonzero"/><g clip-path="url(#164d71060b)"><path fill="#f2c744" d="M 582.882812 557.503906 L 475.234375 513.3125 L 493.050781 557.675781 L 553.519531 708.238281 L 576.046875 632.292969 L 627.144531 683.769531 L 644.535156 666.515625 L 593.445312 615.015625 L 669.539062 593.078125 L 582.882812 557.503906 " fill-opacity="1" fill-rule="nonzero"/></g><path fill="#f2c744" d="M 483.589844 470.5625 C 485.394531 471.875 487.214844 472.78125 489.171875 473.328125 C 494.042969 474.644531 496.421875 474.261719 499.636719 473.296875 C 501.515625 472.730469 503.210938 471.921875 504.679688 470.894531 C 506.125 469.898438 507.261719 468.699219 508.164062 467.230469 C 509.054688 465.8125 509.632812 464.121094 509.886719 462.191406 C 509.921875 460.871094 509.921875 458.496094 509.871094 455.09375 L 509.644531 446.34375 C 508.882812 445.285156 508.066406 444.378906 507.152344 443.566406 C 506.109375 442.644531 504.929688 441.929688 503.574219 441.390625 C 500.238281 439.964844 497.1875 439.265625 494.453125 439.265625 C 492.234375 439.265625 490.035156 439.621094 487.941406 440.328125 C 485.921875 440.996094 484.117188 442.046875 482.558594 443.460938 C 481.003906 444.867188 479.738281 446.691406 478.808594 448.886719 C 477.816406 451.144531 477.328125 453.90625 477.328125 457.117188 C 477.328125 460.507812 477.929688 463.292969 479.121094 465.378906 C 480.402344 467.605469 481.855469 469.300781 483.589844 470.5625 " fill-opacity="1" fill-rule="nonzero"/><g clip-path="url(#f38d3f392b)"><path fill="#f2c744" d="M 454.054688 485.640625 C 451.496094 485.640625 449.410156 484.34375 448.347656 482.078125 L 444.070312 465.480469 L 415.839844 465.480469 L 410.945312 481.476562 C 410.84375 481.808594 410.683594 482.117188 410.480469 482.398438 C 408.421875 485.296875 406 485.90625 404.347656 485.90625 C 402.953125 485.90625 401.699219 485.484375 400.621094 484.65625 C 399.3125 483.644531 398.601562 482.117188 398.601562 480.351562 C 398.601562 480.019531 398.652344 479.230469 398.75 478.914062 L 413.203125 434.082031 C 414.546875 429.898438 415.828125 426.0625 417.03125 422.578125 C 418.273438 419.007812 419.488281 415.925781 420.667969 413.3125 C 421.921875 410.515625 423.175781 408.367188 424.484375 406.75 C 426.230469 404.574219 428.222656 403.46875 430.378906 403.46875 C 431.894531 403.46875 434.15625 404.027344 436.300781 406.699219 C 437.570312 408.269531 438.785156 410.398438 440.015625 413.21875 C 441.132812 415.800781 442.285156 418.921875 443.480469 422.597656 C 444.609375 426.144531 445.886719 430.085938 447.34375 434.402344 L 453.691406 453.785156 C 453.742188 453.796875 453.804688 453.808594 453.851562 453.824219 C 455.335938 454.203125 456.5625 455.039062 457.390625 456.253906 C 458.132812 457.324219 458.535156 458.597656 458.535156 459.917969 C 458.535156 461.269531 458.054688 462.554688 457.140625 463.628906 C 456.980469 463.816406 456.777344 464.003906 456.550781 464.195312 L 460.503906 478.691406 C 460.605469 479.066406 460.640625 479.460938 460.605469 479.851562 C 460.25 483.421875 457.742188 485.640625 454.054688 485.640625 Z M 466.875 443.320312 C 468.609375 439.386719 470.917969 436.070312 473.761719 433.460938 C 476.625 430.84375 479.914062 428.902344 483.539062 427.679688 C 487.101562 426.476562 490.816406 425.960938 494.566406 426.0625 C 496.386719 426.132812 498.167969 426.296875 499.925781 426.550781 C 501.707031 426.8125 503.460938 427.164062 505.195312 427.609375 C 505.207031 427.609375 505.21875 427.613281 505.234375 427.613281 C 506.648438 428 508.089844 428.523438 509.523438 429.203125 C 509.585938 427.441406 509.671875 425.3125 509.773438 422.820312 L 510.050781 416.304688 C 510.160156 413.230469 510.351562 409.625 510.585938 405.496094 C 510.851562 401.371094 511.175781 396.652344 511.59375 391.332031 C 511.714844 389.511719 512.605469 387.90625 514.113281 386.84375 C 516.636719 385.074219 519.484375 385.101562 521.832031 386.550781 C 523.183594 387.441406 524.0625 388.75 524.515625 390.503906 C 524.601562 390.839844 524.628906 391.183594 524.601562 391.539062 C 523.875 401.980469 523.375 411.503906 523.121094 419.84375 C 522.847656 428.335938 522.710938 435.878906 522.710938 442.484375 L 522.710938 447.445312 C 522.710938 448.96875 522.734375 450.429688 522.796875 451.828125 C 522.859375 456.039062 522.972656 459.828125 523.121094 463.265625 C 523.261719 466.644531 523.484375 469.832031 523.773438 472.84375 C 523.773438 472.835938 523.785156 472.835938 523.785156 472.835938 C 523.835938 472.835938 524.289062 473.660156 525.84375 475.679688 C 528.492188 479.527344 527.410156 482.023438 526.546875 483.183594 C 525.40625 484.71875 523.773438 485.660156 521.855469 485.886719 C 519.621094 486.152344 518.089844 485.496094 517.199219 484.878906 C 516.386719 484.304688 515.332031 483.308594 513.898438 481.734375 C 513.523438 481.308594 513.160156 480.871094 512.835938 480.441406 C 510.160156 482.339844 507.476562 483.792969 504.839844 484.761719 C 501.226562 486.089844 497.730469 486.902344 494.441406 487.160156 C 494.078125 487.183594 493.710938 487.191406 493.335938 487.191406 C 492.320312 487.191406 491.277344 487.117188 490.140625 486.96875 C 488.671875 486.765625 487.128906 486.433594 485.519531 485.972656 C 483.914062 485.488281 482.3125 484.90625 480.703125 484.171875 C 479.058594 483.445312 477.457031 482.53125 475.898438 481.4375 C 474.265625 480.253906 472.785156 478.863281 471.417969 477.285156 C 470.0625 475.730469 468.820312 473.933594 467.765625 471.972656 C 466.675781 469.964844 465.824219 467.699219 465.222656 465.246094 C 464.617188 462.855469 464.316406 460.117188 464.316406 457.117188 C 464.316406 451.878906 465.183594 447.234375 466.875 443.320312 Z M 559.832031 466.082031 C 558.652344 464.957031 557.097656 463.984375 555.21875 463.199219 C 553.054688 462.308594 550.738281 461.511719 548.261719 460.792969 C 545.503906 459.996094 542.859375 458.941406 540.398438 457.664062 C 537.765625 456.285156 535.527344 454.480469 533.773438 452.304688 C 531.84375 449.910156 530.863281 446.753906 530.863281 442.925781 C 530.863281 441.496094 531.117188 439.816406 531.640625 437.785156 C 532.203125 435.613281 533.261719 433.519531 534.792969 431.550781 C 536.332031 429.578125 538.476562 427.871094 541.1875 426.476562 C 546.09375 423.945312 554.386719 423.636719 560.398438 425.75 C 563.132812 426.710938 565.480469 428.074219 567.359375 429.792969 C 569.292969 431.539062 570.796875 433.640625 571.828125 436.050781 C 572.84375 438.503906 573.359375 441.113281 573.359375 443.835938 C 573.359375 447.707031 570.785156 450.203125 566.796875 450.203125 C 564.925781 450.203125 563.445312 449.703125 562.390625 448.714844 C 561.4375 447.824219 560.796875 446.589844 560.421875 444.921875 C 560.375 444.714844 560.347656 444.5 560.335938 444.289062 L 560.234375 442.96875 C 560.183594 442.335938 560.007812 441.703125 559.378906 440.726562 C 558.878906 439.921875 558 439.164062 556.746094 438.441406 C 555.894531 437.949219 554.210938 437.371094 550.875 437.371094 C 548.71875 437.371094 547.574219 437.746094 546.996094 438.066406 C 546.082031 438.5625 545.402344 439.105469 544.980469 439.6875 C 544.511719 440.304688 544.222656 440.847656 544.136719 441.324219 C 543.898438 442.386719 543.875 442.796875 543.875 442.925781 C 543.875 444 544.25 444.5 544.8125 444.929688 C 546.042969 445.859375 547.675781 446.71875 549.644531 447.472656 C 551.839844 448.328125 554.199219 449.152344 556.722656 449.933594 C 559.570312 450.832031 562.242188 452.015625 564.675781 453.449219 C 567.335938 455.015625 569.554688 457.042969 571.261719 459.46875 C 573.132812 462.085938 574.070312 465.46875 574.070312 469.5 C 574.070312 471.644531 573.597656 473.789062 572.652344 475.847656 C 571.726562 477.886719 570.335938 479.765625 568.492188 481.425781 C 566.648438 483.074219 564.410156 484.386719 561.867188 485.347656 C 559.292969 486.316406 556.292969 486.816406 552.957031 486.816406 C 549.707031 486.816406 546.644531 486.230469 543.835938 485.082031 C 541.113281 483.976562 538.65625 482.539062 536.546875 480.792969 C 534.347656 478.988281 532.621094 476.933594 531.386719 474.695312 C 530.085938 472.34375 529.40625 469.921875 529.40625 467.511719 C 529.40625 465.394531 529.910156 463.863281 530.949219 462.832031 C 531.878906 461.910156 533.273438 461.367188 535.441406 461.109375 C 538.054688 460.808594 540.296875 461.921875 541.691406 464.152344 C 542.503906 465.460938 543.171875 466.769531 543.722656 468.066406 C 543.75 468.132812 543.773438 468.195312 543.800781 468.265625 C 544.175781 468.941406 544.5625 469.625 544.96875 470.308594 C 545.316406 470.894531 545.804688 471.457031 546.417969 471.980469 C 546.996094 472.484375 547.777344 472.910156 548.742188 473.246094 C 550.738281 473.96875 555.015625 474.003906 557.148438 473.191406 C 558.226562 472.78125 559.066406 472.320312 559.644531 471.804688 C 560.171875 471.324219 560.558594 470.84375 560.75 470.421875 C 561.039062 469.792969 561.050781 469.53125 561.050781 469.5 C 561.050781 467.496094 560.347656 466.589844 559.832031 466.082031 Z M 466.183594 504.191406 C 468.636719 501.753906 471.90625 500.464844 475.234375 500.464844 C 476.878906 500.464844 478.53125 500.777344 480.109375 501.425781 L 607.144531 553.574219 C 646.8125 541.625 675.933594 504.703125 675.933594 461.273438 C 675.933594 408.25 632.554688 364.871094 579.535156 364.871094 L 410.492188 364.871094 C 357.472656 364.871094 314.089844 408.25 314.089844 461.273438 C 314.089844 514.292969 357.472656 557.675781 410.492188 557.675781 L 479.203125 557.675781 L 463.3125 518.101562 C 461.386719 513.308594 462.519531 507.832031 466.183594 504.191406 " fill-opacity="1" fill-rule="nonzero"/></g><path fill="#f2c744" d="M 435.375 439.421875 C 434.355469 436.371094 433.351562 433.445312 432.363281 430.617188 C 431.484375 428.132812 430.714844 425.859375 430.015625 423.789062 L 420.191406 452.90625 L 439.777344 452.90625 C 439.351562 451.515625 438.886719 450.078125 438.398438 448.585938 L 435.375 439.421875 " fill-opacity="1" fill-rule="nonzero"/></svg>