<svg xmlns="http://www.w3.org/2000/svg" xmlns:xlink="http://www.w3.org/1999/xlink" width="1080" zoomAndPan="magnify" viewBox="0 0 810 809.999993" height="1080" preserveAspectRatio="xMidYMid meet" version="1.0"><defs><clipPath id="db8a69dd5f"><path d="M 111 110 L 573.277344 110 L 573.277344 591 L 111 591 Z M 111 110 " clip-rule="nonzero"/></clipPath><clipPath id="7dbb2946f4"><path d="M 572 505 L 721.453125 505 L 721.453125 655.300781 L 572 655.300781 Z M 572 505 " clip-rule="nonzero"/></clipPath><clipPath id="4f07f7588a"><path d="M 385.839844 286.128906 L 686 286.128906 L 686 586 L 385.839844 586 Z M 385.839844 286.128906 " clip-rule="nonzero"/></clipPath></defs><g clip-path="url(#db8a69dd5f)"><path fill="#ffffff" d="M 539.417969 231.820312 C 539.417969 222.980469 551.921875 219.964844 555.480469 229.125 C 580.382812 286.691406 579.734375 348.890625 558.5 403.007812 C 537.15625 457.335938 495.113281 503.476562 437.441406 528.699219 C 436.363281 529.128906 435.285156 529.453125 434.207031 529.453125 C 425.367188 529.453125 422.457031 516.949219 431.511719 513.390625 C 484.765625 490 523.570312 447.203125 543.300781 396.96875 C 563.027344 346.734375 563.566406 288.957031 540.496094 235.59375 C 539.742188 234.515625 539.417969 233.117188 539.417969 231.820312 Z M 152.3125 404.40625 C 154.144531 408.613281 152.207031 413.460938 148.109375 415.1875 C 143.90625 417.019531 139.054688 415.078125 137.222656 410.875 C 86.878906 295.421875 139.699219 161.105469 255.046875 110.761719 C 259.25 108.929688 264.101562 110.871094 265.824219 114.96875 C 267.65625 119.171875 265.71875 124.023438 261.621094 125.746094 C 154.578125 172.53125 105.636719 297.253906 152.3125 404.40625 Z M 187.347656 464.34375 L 205.242188 496.683594 L 241.679688 503.691406 C 247.824219 504.875 250.949219 512.636719 245.667969 517.917969 L 220.875 544.4375 L 225.507812 581.304688 C 226.261719 587.449219 219.902344 592.949219 213.21875 589.5 L 180.234375 574.082031 L 146.601562 589.820312 C 140.671875 592.625 134.203125 587.664062 134.957031 581.414062 L 139.59375 544.546875 L 114.152344 517.378906 C 109.734375 512.636719 112.320312 504.875 118.570312 503.691406 L 155.007812 496.683594 L 172.902344 464.234375 C 176.027344 458.414062 184.328125 458.628906 187.347656 464.34375 Z M 192.738281 508.003906 L 180.125 485.257812 L 167.511719 508.003906 C 166.328125 510.15625 164.277344 511.667969 161.800781 512.207031 L 136.25 517.164062 L 153.5 535.597656 C 155.4375 537.324219 156.515625 540.019531 156.195312 542.820312 L 152.960938 568.691406 L 176.566406 557.699219 C 178.722656 556.726562 181.203125 556.621094 183.574219 557.699219 L 207.183594 568.691406 L 203.949219 542.820312 L 204.054688 542.820312 C 203.734375 540.449219 204.488281 538.078125 206.210938 536.246094 L 224 517.164062 L 198.449219 512.207031 C 196.078125 511.667969 193.921875 510.265625 192.738281 508.003906 Z M 242.863281 540.125 C 271.753906 532.363281 291.375 522.339844 304.417969 511.992188 C 316.058594 502.71875 322.097656 493.234375 324.46875 485.042969 L 312.394531 485.042969 C 306.359375 485.042969 301.613281 478.359375 305.710938 471.996094 L 339.773438 413.03125 C 342.902344 407.535156 350.878906 407.535156 354.113281 413.140625 L 388.5 472.753906 C 391.625 478.25 387.636719 485.042969 381.386719 485.042969 L 367.371094 485.042969 C 364.460938 507.246094 352.0625 524.171875 332.875 536.03125 C 310.886719 549.71875 279.945312 556.402344 244.695312 556.402344 C 240.167969 556.402344 236.503906 552.738281 236.503906 548.210938 C 236.394531 544.222656 239.199219 540.878906 242.863281 540.125 Z M 314.65625 524.820312 C 312.394531 526.652344 309.914062 528.484375 307.328125 530.207031 C 313.472656 527.945312 319.1875 525.140625 324.144531 522.015625 C 340.636719 511.773438 350.769531 496.898438 351.417969 477.171875 C 351.417969 472.105469 354.976562 468.546875 359.609375 468.546875 L 366.941406 468.546875 L 346.675781 433.511719 L 326.515625 468.546875 L 333.847656 468.546875 C 338.375 468.546875 342.039062 472.214844 342.039062 476.742188 C 342.253906 490.539062 335.246094 508.433594 314.65625 524.820312 Z M 480.558594 276.773438 C 476.25 278.28125 471.503906 275.910156 470.105469 271.597656 C 468.59375 267.289062 470.964844 262.652344 475.277344 261.144531 L 504.707031 251.011719 C 509.019531 249.5 513.65625 251.871094 515.164062 256.183594 C 516.671875 260.496094 514.300781 265.132812 509.988281 266.640625 Z M 357.238281 179.648438 C 356.589844 184.175781 352.496094 187.300781 347.96875 186.652344 C 343.441406 186.007812 340.3125 181.910156 340.960938 177.382812 L 345.917969 141.59375 C 346.566406 137.066406 350.664062 133.941406 355.191406 134.585938 C 359.71875 135.234375 362.84375 139.332031 362.199219 143.859375 Z M 214.945312 254.78125 C 219.257812 256.292969 221.519531 260.925781 220.117188 265.238281 C 218.609375 269.550781 213.972656 271.921875 209.660156 270.414062 L 180.234375 260.28125 C 175.921875 258.769531 173.65625 254.136719 175.058594 249.824219 C 176.566406 245.511719 181.203125 243.140625 185.515625 244.648438 Z M 215.484375 340.699219 C 219.796875 339.40625 224.429688 341.882812 225.722656 346.304688 C 227.019531 350.617188 224.539062 355.25 220.117188 356.542969 L 190.257812 365.277344 C 185.945312 366.570312 181.3125 364.089844 180.015625 359.671875 C 178.722656 355.359375 181.203125 350.722656 185.621094 349.429688 Z M 430.324219 210.476562 C 427.523438 214.035156 422.347656 214.683594 418.792969 211.878906 C 415.234375 209.074219 414.585938 203.902344 417.390625 200.34375 L 439.597656 171.777344 C 442.398438 168.21875 447.574219 167.574219 451.132812 170.375 C 454.6875 173.179688 455.335938 178.351562 452.53125 181.910156 Z M 277.898438 201.746094 C 280.378906 205.519531 279.40625 210.585938 275.527344 213.171875 C 271.753906 215.652344 266.6875 214.683594 264.101562 210.910156 L 245.128906 182.125 C 242.648438 178.351562 243.617188 173.179688 247.390625 170.699219 C 251.164062 168.21875 256.339844 169.191406 258.816406 173.070312 Z M 353.464844 226.753906 L 382.464844 279.144531 L 441.429688 290.464844 C 447.574219 291.648438 450.699219 299.410156 445.417969 304.695312 L 404.886719 348.136719 L 412.324219 407.75 C 413.078125 413.894531 406.71875 419.390625 400.035156 415.941406 L 346.351562 390.824219 L 291.914062 416.265625 C 286.089844 419.066406 279.515625 414.109375 280.269531 407.855469 L 287.707031 348.246094 L 246.746094 304.476562 C 242.324219 299.734375 244.914062 291.972656 251.164062 290.789062 L 310.128906 279.46875 L 339.128906 226.972656 C 342.253906 220.933594 350.445312 221.148438 353.464844 226.753906 Z M 369.851562 290.570312 L 346.242188 247.777344 L 322.527344 290.570312 C 321.339844 292.621094 319.402344 294.238281 316.8125 294.777344 L 268.734375 304.046875 L 301.613281 339.1875 C 303.554688 340.914062 304.632812 343.609375 304.308594 346.410156 L 298.273438 395.027344 L 342.6875 374.222656 C 344.839844 373.253906 347.320312 373.144531 349.691406 374.222656 L 393.996094 395.027344 L 387.960938 346.410156 C 387.636719 344.039062 388.390625 341.667969 390.117188 339.835938 L 423.535156 304.046875 L 375.457031 294.777344 C 373.300781 294.238281 371.144531 292.835938 369.851562 290.570312 Z M 369.851562 290.570312 " fill-opacity="1" fill-rule="nonzero"/></g><g clip-path="url(#7dbb2946f4)"><path fill="#f8bd08" d="M 572.40625 505.191406 L 617.226562 637.261719 L 643.550781 597.863281 C 644.230469 596.851562 645.347656 596.214844 646.570312 596.15625 C 646.628906 596.15625 646.691406 596.152344 646.753906 596.152344 C 647.90625 596.152344 649.003906 596.671875 649.738281 597.570312 L 701.976562 661.59375 L 728.808594 634.761719 L 664.785156 582.523438 C 663.835938 581.75 663.316406 580.574219 663.371094 579.351562 C 663.429688 578.132812 664.0625 577.015625 665.078125 576.335938 L 704.472656 550.011719 L 655.527344 533.402344 L 655.523438 533.402344 L 572.40625 505.191406 " fill-opacity="1" fill-rule="nonzero"/></g><g clip-path="url(#4f07f7588a)"><path fill="#f8bd08" d="M 540.964844 437.988281 L 540.964844 406.546875 C 540.964844 404.421875 542.6875 402.695312 544.816406 402.695312 L 560.578125 402.695312 C 562.707031 402.695312 564.429688 404.421875 564.429688 406.546875 L 564.429688 437.671875 C 564.429688 440.601562 565.015625 442.726562 566.171875 443.980469 C 566.871094 444.742188 568.109375 445.742188 570.902344 445.742188 C 573.730469 445.742188 574.988281 444.773438 575.683594 444.046875 C 576.804688 442.878906 577.375 440.867188 577.375 438.070312 L 577.375 406.546875 C 577.375 404.421875 579.097656 402.695312 581.222656 402.695312 L 596.988281 402.695312 C 599.113281 402.695312 600.835938 404.421875 600.835938 406.546875 L 600.835938 437.59375 C 600.835938 447.410156 598.097656 454.9375 592.6875 459.972656 C 587.359375 464.933594 579.972656 467.445312 570.742188 467.445312 C 561.550781 467.445312 554.230469 464.941406 548.976562 460 C 543.660156 454.992188 540.964844 447.589844 540.964844 437.988281 Z M 536.828125 397.644531 L 516.875 475.316406 C 516.453125 476.964844 514.992188 478.140625 513.289062 478.207031 L 501.722656 478.644531 C 501.671875 478.648438 501.625 478.648438 501.578125 478.648438 C 500.417969 478.648438 499.320312 478.125 498.589844 477.222656 C 497.824219 476.28125 497.546875 475.035156 497.839844 473.859375 L 517.289062 396.207031 C 517.707031 394.542969 519.167969 393.359375 520.878906 393.292969 L 532.953125 392.839844 C 534.152344 392.742188 535.332031 393.328125 536.097656 394.269531 C 536.859375 395.21875 537.132812 396.46875 536.828125 397.644531 Z M 494.019531 462.554688 C 494.019531 464.679688 492.292969 466.40625 490.167969 466.40625 L 474.566406 466.40625 C 472.441406 466.40625 470.714844 464.679688 470.714844 462.554688 L 470.714844 406.546875 C 470.714844 404.421875 472.441406 402.695312 474.566406 402.695312 L 490.167969 402.695312 C 492.292969 402.695312 494.019531 404.421875 494.019531 406.546875 Z M 465.539062 437.59375 C 465.539062 447.410156 462.796875 454.9375 457.390625 459.972656 C 452.0625 464.933594 444.675781 467.445312 435.445312 467.445312 C 426.253906 467.445312 418.933594 464.941406 413.683594 460 C 408.367188 454.992188 405.671875 447.589844 405.671875 437.988281 L 405.671875 406.546875 C 405.671875 404.421875 407.394531 402.695312 409.523438 402.695312 L 425.285156 402.695312 C 427.410156 402.695312 429.132812 404.421875 429.132812 406.546875 L 429.132812 437.671875 C 429.132812 440.601562 429.71875 442.726562 430.878906 443.980469 C 431.570312 444.738281 432.816406 445.742188 435.605469 445.742188 C 437.730469 445.742188 439.292969 445.1875 440.382812 444.046875 C 441.507812 442.875 442.074219 440.867188 442.074219 438.070312 L 442.074219 406.546875 C 442.074219 404.421875 443.800781 402.695312 445.925781 402.695312 L 461.6875 402.695312 C 463.816406 402.695312 465.539062 404.421875 465.539062 406.546875 Z M 603.1875 460.402344 L 620.941406 434.0625 L 603.976562 408.6875 C 603.1875 407.507812 603.113281 405.984375 603.78125 404.730469 C 604.453125 403.476562 605.753906 402.695312 607.179688 402.695312 L 625.019531 402.695312 C 626.34375 402.695312 627.574219 403.375 628.277344 404.496094 L 634.953125 415.101562 L 641.695312 404.484375 C 642.402344 403.371094 643.625 402.695312 644.941406 402.695312 L 662.386719 402.695312 C 663.808594 402.695312 665.113281 403.480469 665.785156 404.734375 C 666.453125 405.996094 666.375 407.515625 665.578125 408.695312 L 648.621094 433.910156 L 666.386719 460.410156 C 667.175781 461.59375 667.253906 463.117188 666.582031 464.367188 C 665.914062 465.621094 664.605469 466.40625 663.1875 466.40625 L 645.34375 466.40625 C 644.027344 466.40625 642.796875 465.730469 642.09375 464.617188 L 634.609375 452.835938 L 627.066406 464.628906 C 626.359375 465.738281 625.136719 466.40625 623.824219 466.40625 L 606.378906 466.40625 C 604.957031 466.40625 603.648438 465.621094 602.976562 464.363281 C 602.308594 463.109375 602.386719 461.582031 603.1875 460.402344 Z M 563.53125 496.320312 C 564.566406 495.277344 566.105469 494.929688 567.492188 495.394531 L 655.378906 525.21875 C 674.847656 499.207031 685.121094 468.328125 685.121094 435.742188 C 685.121094 353.246094 618.003906 286.128906 535.507812 286.128906 C 453.007812 286.128906 385.890625 353.246094 385.890625 435.742188 C 385.890625 518.238281 453.007812 585.355469 535.507812 585.355469 C 553.628906 585.355469 571.347656 582.132812 588.222656 575.765625 L 562.605469 500.277344 C 562.136719 498.890625 562.492188 497.351562 563.53125 496.320312 " fill-opacity="1" fill-rule="nonzero"/></g></svg>