<svg xmlns="http://www.w3.org/2000/svg" xmlns:xlink="http://www.w3.org/1999/xlink" width="1080" zoomAndPan="magnify" viewBox="0 0 810 809.999993" height="1080" preserveAspectRatio="xMidYMid meet" version="1.0"><defs><clipPath id="89635052e0"><path d="M 408.398438 349.554688 L 650.371094 349.554688 L 650.371094 625 L 408.398438 625 Z M 408.398438 349.554688 " clip-rule="nonzero"/></clipPath></defs><path fill="#f8bd08" d="M 461.0625 199.574219 L 294.191406 199.574219 C 283.433594 199.574219 273.660156 203.96875 266.582031 211.042969 C 259.503906 218.125 255.109375 227.898438 255.109375 238.65625 L 255.109375 571.34375 C 255.109375 582.097656 259.503906 591.871094 266.582031 598.949219 C 273.660156 606.03125 283.429688 610.425781 294.191406 610.425781 L 461.0625 610.425781 C 471.824219 610.425781 481.59375 606.03125 488.671875 598.949219 C 495.75 591.871094 500.148438 582.097656 500.148438 571.34375 L 500.148438 238.65625 C 500.148438 227.898438 495.75 218.125 488.671875 211.046875 C 481.59375 203.96875 471.824219 199.574219 461.0625 199.574219 Z M 361.667969 572.53125 L 393.589844 572.53125 C 398.9375 572.53125 403.316406 576.910156 403.316406 582.257812 C 403.316406 587.609375 398.9375 591.988281 393.589844 591.988281 L 361.667969 591.988281 C 356.3125 591.988281 351.9375 587.609375 351.9375 582.257812 C 351.9375 576.910156 356.3125 572.53125 361.667969 572.53125 Z M 338.425781 221.273438 C 341.976562 221.273438 344.851562 224.148438 344.851562 227.695312 C 344.851562 231.242188 341.976562 234.117188 338.425781 234.117188 C 334.878906 234.117188 332.003906 231.242188 332.003906 227.695312 C 332.003906 224.148438 334.878906 221.273438 338.425781 221.273438 Z M 416.828125 234.117188 C 420.371094 234.117188 423.25 231.242188 423.25 227.695312 C 423.25 224.148438 420.371094 221.273438 416.828125 221.273438 L 357.929688 221.273438 C 354.382812 221.273438 351.507812 224.148438 351.507812 227.695312 C 351.507812 231.242188 354.382812 234.117188 357.929688 234.117188 Z M 274.375 257.292969 L 480.878906 257.292969 L 480.878906 554.09375 L 274.375 554.09375 L 274.375 257.292969 " fill-opacity="1" fill-rule="evenodd"/><g clip-path="url(#89635052e0)"><path fill="#ffffff" d="M 522.164062 397.183594 C 537.277344 406.800781 547.8125 422.828125 549.644531 441.148438 C 555.597656 443.894531 562.46875 445.726562 569.792969 445.726562 C 596.355469 445.726562 617.882812 424.203125 617.882812 397.640625 C 617.882812 371.078125 596.355469 349.554688 569.792969 349.554688 C 543.691406 350.011719 522.164062 371.078125 522.164062 397.183594 Z M 490.566406 495.1875 C 517.128906 495.1875 538.652344 473.664062 538.652344 447.101562 C 538.652344 420.539062 517.128906 399.015625 490.566406 399.015625 C 464.003906 399.015625 442.476562 420.539062 442.476562 447.101562 C 442.476562 473.664062 464.003906 495.1875 490.566406 495.1875 Z M 510.714844 498.394531 L 469.957031 498.394531 C 436.066406 498.394531 408.585938 525.875 408.585938 559.765625 L 408.585938 610.597656 L 411.792969 611.515625 C 443.851562 621.589844 472.246094 624.796875 495.144531 624.796875 C 540.027344 624.796875 566.128906 611.972656 567.960938 611.058594 L 571.167969 609.226562 L 571.625 609.226562 L 571.625 559.765625 C 572.085938 525.875 544.605469 498.394531 510.714844 498.394531 Z M 589.945312 448.933594 L 549.644531 448.933594 C 549.1875 464.964844 542.316406 479.617188 531.324219 490.152344 C 561.550781 499.3125 583.535156 526.789062 583.535156 559.765625 L 583.535156 574.878906 C 623.378906 573.503906 646.277344 562.054688 647.652344 561.597656 L 650.855469 559.765625 L 651.3125 559.765625 L 651.3125 510.300781 C 651.3125 476.414062 623.835938 448.933594 589.945312 448.933594 Z M 589.945312 448.933594 " fill-opacity="1" fill-rule="nonzero"/></g></svg>