<svg xmlns="http://www.w3.org/2000/svg" xmlns:xlink="http://www.w3.org/1999/xlink" width="1080" zoomAndPan="magnify" viewBox="0 0 810 809.999993" height="1080" preserveAspectRatio="xMidYMid meet" version="1.0"><defs><clipPath id="453fd95d52"><path d="M 261 117.042969 L 714.230469 117.042969 L 714.230469 694 L 261 694 Z M 261 117.042969 " clip-rule="nonzero"/></clipPath><clipPath id="b5b2bccaba"><path d="M 99.757812 405.183594 L 304 405.183594 L 304 617 L 99.757812 617 Z M 99.757812 405.183594 " clip-rule="nonzero"/></clipPath></defs><g clip-path="url(#453fd95d52)"><path fill="#ffffff" d="M 639.863281 551.195312 C 643.277344 554.609375 643.277344 560.121094 639.863281 563.527344 L 569.617188 633.78125 C 565.9375 637.460938 559.886719 637.128906 556.632812 633.070312 L 528.53125 597.941406 C 525.519531 594.183594 526.121094 588.6875 529.890625 585.675781 C 533.65625 582.660156 539.140625 583.28125 542.15625 587.035156 L 564.164062 614.546875 L 627.527344 551.191406 C 630.9375 547.785156 636.460938 547.785156 639.863281 551.195312 Z M 589.761719 675.652344 C 635.320312 675.652344 672.382812 638.605469 672.382812 593.054688 C 672.382812 547.507812 635.316406 510.453125 589.761719 510.453125 C 544.222656 510.453125 507.167969 547.507812 507.167969 593.054688 C 507.167969 638.605469 544.222656 675.652344 589.761719 675.652344 Z M 428.054688 643.289062 C 425.011719 643.289062 422.429688 640.722656 422.429688 637.667969 L 422.429688 600.21875 L 490 600.21875 C 491.105469 615.828125 495.804688 630.46875 503.292969 643.289062 Z M 393.425781 581.765625 L 393.425781 548.039062 C 393.425781 547.515625 393.886719 547.050781 394.429688 547.050781 L 500.960938 547.050781 C 495.296875 557.945312 491.546875 570.003906 490.234375 582.769531 L 394.429688 582.769531 C 393.886719 582.769531 393.425781 582.304688 393.425781 581.765625 Z M 394.214844 494.054688 C 366.117188 471.78125 348.789062 439.324219 345.835938 403.976562 L 374.910156 403.976562 L 374.910156 417 C 374.910156 433.796875 388.585938 447.476562 405.386719 447.476562 C 422.203125 447.476562 435.875 433.796875 435.875 417 L 435.875 403.976562 L 465.386719 403.976562 L 465.386719 443.28125 C 465.386719 448.105469 469.289062 452.015625 474.121094 452.015625 L 495.867188 452.015625 C 503.046875 452.015625 508.886719 457.855469 508.886719 465.035156 C 508.886719 472.214844 503.046875 478.058594 495.867188 478.058594 L 474.121094 478.058594 C 469.292969 478.058594 465.390625 481.96875 465.390625 486.78125 L 465.390625 529.59375 L 419.011719 529.59375 C 414.660156 515.738281 406.191406 503.550781 394.214844 494.054688 Z M 452.367188 338.480469 C 445.171875 338.480469 439.328125 332.636719 439.328125 325.460938 C 439.328125 318.28125 445.171875 312.4375 452.367188 312.4375 L 474.121094 312.4375 C 478.933594 312.4375 482.84375 308.535156 482.84375 303.707031 L 482.84375 264.695312 C 547.582031 269.054688 599.367188 321.503906 602.675781 386.519531 L 574.390625 386.519531 L 574.390625 373.496094 C 574.390625 356.691406 560.71875 343.019531 543.917969 343.019531 C 527.109375 343.019531 513.4375 356.691406 513.4375 373.496094 L 513.4375 386.519531 L 482.84375 386.519531 L 482.84375 347.207031 C 482.84375 342.390625 478.933594 338.484375 474.117188 338.484375 L 452.367188 338.484375 Z M 554.027344 494.054688 C 549.996094 497.253906 546.355469 500.792969 543.117188 504.578125 C 531.316406 510.824219 520.890625 519.355469 512.476562 529.59375 L 482.847656 529.59375 L 482.847656 495.515625 L 495.867188 495.515625 C 512.667969 495.515625 526.347656 481.84375 526.347656 465.035156 C 526.347656 448.226562 512.667969 434.558594 495.867188 434.558594 L 482.847656 434.558594 L 482.847656 403.976562 L 522.167969 403.976562 C 526.988281 403.976562 530.898438 400.066406 530.898438 395.246094 L 530.898438 373.5 C 530.898438 366.320312 536.734375 360.476562 543.921875 360.476562 C 551.101562 360.476562 556.941406 366.320312 556.941406 373.5 L 556.941406 395.246094 C 556.941406 400.066406 560.851562 403.976562 565.667969 403.976562 L 602.40625 403.976562 C 599.453125 439.324219 582.132812 471.78125 554.027344 494.054688 Z M 589.761719 492.992188 C 586.640625 492.992188 583.527344 493.15625 580.464844 493.441406 C 606.015625 466.433594 620.289062 430.859375 620.289062 393.125 C 620.289062 312.53125 554.714844 246.949219 474.121094 246.949219 C 469.292969 246.949219 465.390625 250.851562 465.390625 255.683594 L 465.390625 294.980469 L 452.367188 294.980469 C 435.550781 294.980469 421.882812 308.652344 421.882812 325.457031 C 421.882812 342.257812 435.550781 355.929688 452.367188 355.929688 L 465.390625 355.929688 L 465.390625 386.515625 L 427.152344 386.515625 C 422.320312 386.515625 418.425781 390.425781 418.425781 395.242188 L 418.425781 416.996094 C 418.425781 424.175781 412.582031 430.015625 405.390625 430.015625 C 398.210938 430.015625 392.367188 424.175781 392.367188 416.996094 L 392.367188 395.242188 C 392.367188 390.425781 388.464844 386.515625 383.636719 386.515625 L 336.671875 386.515625 C 331.8125 386.515625 327.871094 390.519531 327.941406 395.375 C 328.621094 439.382812 348.804688 480.351562 383.375 507.730469 C 391.132812 513.882812 396.835938 521.214844 400.429688 529.59375 L 394.429688 529.59375 C 384.261719 529.59375 375.96875 537.871094 375.96875 548.039062 L 375.96875 581.765625 C 375.96875 591.9375 384.261719 600.21875 394.429688 600.21875 L 404.972656 600.21875 L 404.972656 637.667969 C 404.972656 650.390625 415.328125 660.746094 428.054688 660.746094 L 516.175781 660.746094 C 534.46875 680.621094 560.691406 693.109375 589.761719 693.109375 C 644.941406 693.109375 689.832031 648.226562 689.832031 593.054688 C 689.832031 537.878906 644.941406 492.992188 589.761719 492.992188 Z M 711.824219 268.085938 L 678.574219 287.292969 C 674.46875 289.652344 669.089844 288.324219 666.640625 284.085938 C 664.230469 279.910156 665.667969 274.578125 669.847656 272.167969 L 703.101562 252.972656 C 707.265625 250.550781 712.613281 251.980469 715.019531 256.15625 C 717.429688 260.335938 716.007812 265.660156 711.824219 268.085938 Z M 582.070312 190.792969 L 601.277344 157.53125 C 603.6875 153.359375 609.027344 151.925781 613.199219 154.332031 C 617.367188 156.757812 618.800781 162.082031 616.390625 166.261719 L 597.1875 199.515625 C 594.742188 203.757812 589.359375 205.082031 585.269531 202.722656 C 581.097656 200.296875 579.660156 194.964844 582.070312 190.792969 Z M 465.386719 164.199219 L 465.386719 125.800781 C 465.386719 120.976562 469.289062 117.066406 474.121094 117.066406 C 478.933594 117.066406 482.84375 120.976562 482.84375 125.800781 L 482.84375 164.199219 C 482.84375 169.023438 478.933594 172.925781 474.121094 172.925781 C 469.289062 172.925781 465.386719 169.023438 465.386719 164.199219 Z M 326.023438 325.527344 L 326.023438 303.773438 C 326.023438 298.953125 322.113281 295.050781 317.296875 295.050781 L 279.214844 295.050781 C 282.523438 230.019531 334.304688 177.570312 399.042969 173.21875 L 399.042969 203.511719 L 386.023438 203.511719 C 369.222656 203.511719 355.542969 217.183594 355.542969 233.992188 C 355.542969 250.792969 369.222656 264.460938 386.023438 264.460938 L 399.042969 264.460938 L 399.042969 295.046875 L 360.796875 295.046875 C 355.976562 295.046875 352.066406 298.953125 352.066406 303.773438 L 352.066406 325.527344 C 352.066406 332.707031 346.222656 338.550781 339.042969 338.550781 C 331.863281 338.550781 326.023438 332.707031 326.023438 325.527344 Z M 369.523438 325.527344 C 369.523438 342.328125 355.851562 356.007812 339.042969 356.007812 C 322.242188 356.007812 308.566406 342.328125 308.566406 325.527344 L 308.566406 312.507812 L 270.332031 312.507812 C 265.566406 312.507812 261.679688 308.675781 261.609375 303.90625 C 260.597656 221.949219 326.464844 155.472656 407.769531 155.472656 C 412.589844 155.472656 416.5 159.386719 416.5 164.199219 L 416.5 212.234375 C 416.5 217.058594 412.589844 220.960938 407.769531 220.960938 L 386.023438 220.960938 C 378.84375 220.960938 373 226.808594 373 233.988281 C 373 241.167969 378.84375 247.011719 386.023438 247.011719 L 407.769531 247.011719 C 412.589844 247.011719 416.5 250.921875 416.5 255.734375 L 416.5 303.773438 C 416.5 308.59375 412.589844 312.503906 407.769531 312.503906 L 369.523438 312.503906 Z M 369.523438 325.527344 " fill-opacity="1" fill-rule="evenodd"/></g><path fill="#f8bd08" d="M 180.691406 518.640625 C 147.421875 563.984375 151.308594 628.261719 192.246094 669.195312 C 237.476562 714.425781 310.984375 714.425781 356.214844 669.195312 C 401.386719 624.023438 401.386719 550.515625 356.15625 505.285156 C 315.222656 464.351562 250.945312 460.460938 205.597656 493.730469 L 188.0625 476.195312 C 243.050781 433.402344 323.003906 437.292969 373.574219 487.867188 C 428.386719 542.675781 428.386719 631.863281 373.632812 686.613281 C 318.820312 741.425781 229.636719 741.425781 174.824219 686.613281 C 124.253906 636.042969 120.363281 556.207031 163.15625 501.105469 Z M 180.691406 518.640625 " fill-opacity="1" fill-rule="nonzero"/><path fill="#f8bd08" d="M 244.964844 533.097656 L 226.910156 515.039062 C 260.351562 493.207031 305.816406 496.867188 335.195312 526.246094 C 368.8125 559.863281 368.8125 614.558594 335.195312 648.175781 C 301.578125 681.796875 246.882812 681.796875 213.265625 648.175781 C 211.53125 646.441406 209.875 644.636719 208.296875 642.761719 C 206.714844 640.882812 205.21875 638.941406 203.808594 636.9375 C 202.394531 634.933594 201.066406 632.875 199.828125 630.757812 C 198.589844 628.640625 197.445312 626.472656 196.390625 624.257812 C 195.339844 622.046875 194.382812 619.789062 193.519531 617.492188 C 192.660156 615.195312 191.898438 612.867188 191.234375 610.507812 C 190.570312 608.144531 190.011719 605.761719 189.550781 603.351562 C 189.09375 600.941406 188.734375 598.519531 188.484375 596.078125 C 188.230469 593.640625 188.082031 591.195312 188.039062 588.742188 C 187.992188 586.289062 188.054688 583.839844 188.21875 581.394531 C 188.382812 578.945312 188.652344 576.511719 189.023438 574.085938 C 189.394531 571.664062 189.871094 569.257812 190.445312 566.875 C 191.023438 564.492188 191.703125 562.136719 192.480469 559.808594 C 193.257812 557.484375 194.132812 555.195312 195.105469 552.945312 C 196.078125 550.695312 197.144531 548.488281 198.304688 546.328125 C 199.464844 544.167969 200.71875 542.058594 202.058594 540.007812 L 220.058594 558.007812 C 219.476562 559.078125 218.929688 560.171875 218.414062 561.277344 C 217.898438 562.382812 217.414062 563.503906 216.964844 564.640625 C 216.515625 565.773438 216.101562 566.921875 215.722656 568.082031 C 215.339844 569.242188 214.992188 570.410156 214.683594 571.59375 C 214.371094 572.773438 214.09375 573.960938 213.855469 575.15625 C 213.613281 576.355469 213.410156 577.558594 213.238281 578.765625 C 213.070312 579.976562 212.9375 581.1875 212.839844 582.40625 C 212.742188 583.621094 212.683594 584.839844 212.65625 586.0625 C 212.632812 587.28125 212.644531 588.503906 212.691406 589.722656 C 212.738281 590.941406 212.824219 592.160156 212.945312 593.375 C 213.0625 594.589844 213.21875 595.800781 213.414062 597.003906 C 213.605469 598.210938 213.832031 599.410156 214.09375 600.601562 C 214.359375 601.792969 214.65625 602.976562 214.992188 604.148438 C 215.324219 605.324219 215.691406 606.488281 216.09375 607.640625 C 216.496094 608.792969 216.933594 609.933594 217.40625 611.058594 C 217.875 612.183594 218.378906 613.296875 218.914062 614.394531 C 219.453125 615.488281 220.019531 616.570312 220.621094 617.632812 C 221.222656 618.695312 221.855469 619.738281 222.515625 620.765625 C 223.179688 621.789062 223.871094 622.792969 224.59375 623.777344 C 225.316406 624.761719 226.066406 625.722656 226.847656 626.664062 C 227.625 627.601562 228.433594 628.519531 229.269531 629.410156 C 230.101562 630.300781 230.960938 631.167969 231.847656 632.007812 C 232.730469 632.847656 233.640625 633.660156 234.574219 634.449219 C 235.507812 635.234375 236.464844 635.992188 237.445312 636.722656 C 238.421875 637.449219 239.421875 638.148438 240.445312 638.820312 C 241.464844 639.492188 242.503906 640.128906 243.5625 640.738281 C 244.621094 641.347656 245.695312 641.921875 246.789062 642.46875 C 247.882812 643.011719 248.988281 643.523438 250.113281 644 C 251.234375 644.480469 252.371094 644.925781 253.519531 645.335938 C 254.671875 645.746094 255.832031 646.125 257.003906 646.464844 C 258.175781 646.808594 259.355469 647.113281 260.546875 647.386719 C 261.734375 647.660156 262.933594 647.894531 264.136719 648.09375 C 265.339844 648.296875 266.550781 648.460938 267.765625 648.589844 C 268.976562 648.71875 270.195312 648.8125 271.414062 648.867188 C 272.632812 648.925781 273.855469 648.945312 275.074219 648.929688 C 276.296875 648.914062 277.515625 648.859375 278.730469 648.773438 C 279.949219 648.683594 281.164062 648.558594 282.375 648.398438 C 283.582031 648.238281 284.789062 648.042969 285.988281 647.808594 C 287.183594 647.578125 288.375 647.308594 289.558594 647.007812 C 290.742188 646.703125 291.914062 646.367188 293.074219 645.996094 C 294.238281 645.621094 295.390625 645.214844 296.527344 644.773438 C 297.664062 644.332031 298.789062 643.859375 299.898438 643.351562 C 301.011719 642.84375 302.105469 642.304688 303.183594 641.730469 C 304.261719 641.15625 305.320312 640.554688 306.363281 639.917969 C 307.40625 639.28125 308.425781 638.617188 309.429688 637.917969 C 310.433594 637.222656 311.414062 636.496094 312.371094 635.742188 C 313.332031 634.988281 314.269531 634.203125 315.179688 633.394531 C 316.09375 632.582031 316.984375 631.746094 317.847656 630.882812 C 318.707031 630.019531 319.546875 629.132812 320.355469 628.21875 C 321.167969 627.308594 321.949219 626.371094 322.703125 625.410156 C 323.457031 624.453125 324.183594 623.46875 324.882812 622.46875 C 325.578125 621.464844 326.242188 620.441406 326.878906 619.402344 C 327.515625 618.359375 328.121094 617.296875 328.691406 616.21875 C 329.265625 615.140625 329.804688 614.046875 330.3125 612.9375 C 330.820312 611.828125 331.292969 610.703125 331.734375 609.566406 C 332.175781 608.425781 332.582031 607.277344 332.957031 606.113281 C 333.328125 604.953125 333.664062 603.777344 333.96875 602.597656 C 334.269531 601.414062 334.539062 600.222656 334.769531 599.023438 C 335.003906 597.824219 335.199219 596.621094 335.359375 595.410156 C 335.519531 594.203125 335.644531 592.988281 335.734375 591.769531 C 335.820312 590.550781 335.875 589.332031 335.890625 588.113281 C 335.90625 586.890625 335.886719 585.671875 335.828125 584.453125 C 335.773438 583.234375 335.679688 582.015625 335.550781 580.800781 C 335.421875 579.589844 335.257812 578.378906 335.054688 577.175781 C 334.855469 575.972656 334.617188 574.773438 334.347656 573.582031 C 334.074219 572.394531 333.769531 571.210938 333.425781 570.039062 C 333.085938 568.867188 332.707031 567.707031 332.296875 566.558594 C 331.886719 565.410156 331.441406 564.273438 330.960938 563.148438 C 330.484375 562.027344 329.972656 560.917969 329.425781 559.828125 C 328.882812 558.734375 328.308594 557.660156 327.699219 556.601562 C 327.089844 555.542969 326.449219 554.503906 325.78125 553.480469 C 325.109375 552.460938 324.410156 551.460938 323.679688 550.484375 C 322.953125 549.503906 322.195312 548.546875 321.40625 547.613281 C 320.621094 546.679688 319.808594 545.769531 318.96875 544.886719 C 318.128906 544 317.261719 543.140625 316.371094 542.304688 C 315.476562 541.472656 314.5625 540.664062 313.625 539.886719 C 312.683594 539.105469 311.722656 538.355469 310.738281 537.632812 C 309.753906 536.910156 308.75 536.21875 307.722656 535.554688 C 306.699219 534.890625 305.65625 534.261719 304.59375 533.660156 C 303.53125 533.058594 302.449219 532.492188 301.351562 531.953125 C 300.257812 531.417969 299.144531 530.914062 298.019531 530.445312 C 296.890625 529.972656 295.753906 529.535156 294.601562 529.132812 C 293.449219 528.730469 292.285156 528.363281 291.109375 528.03125 C 289.9375 527.695312 288.753906 527.398438 287.5625 527.132812 C 286.367188 526.871094 285.167969 526.644531 283.964844 526.449219 C 282.757812 526.257812 281.546875 526.101562 280.332031 525.984375 C 279.117188 525.863281 277.902344 525.777344 276.679688 525.730469 C 275.460938 525.683594 274.242188 525.671875 273.019531 525.695312 C 271.800781 525.722656 270.582031 525.78125 269.363281 525.878906 C 268.148438 525.976562 266.933594 526.109375 265.726562 526.277344 C 264.515625 526.449219 263.3125 526.652344 262.117188 526.894531 C 260.921875 527.132812 259.730469 527.410156 258.550781 527.722656 C 257.371094 528.035156 256.203125 528.378906 255.042969 528.761719 C 253.882812 529.140625 252.734375 529.554688 251.597656 530.003906 C 250.464844 530.453125 249.34375 530.9375 248.238281 531.453125 C 247.128906 531.96875 246.039062 532.515625 244.964844 533.097656 Z M 244.964844 533.097656 " fill-opacity="1" fill-rule="nonzero"/><g clip-path="url(#b5b2bccaba)"><path fill="#f8bd08" d="M 92.203125 438.046875 L 122.742188 435.726562 L 125.066406 405.183594 L 153.515625 433.636719 L 152.355469 448.964844 L 158.625 438.746094 L 176.566406 456.6875 L 170.683594 470.394531 L 261.230469 560.941406 C 261.746094 560.6875 262.269531 560.445312 262.800781 560.222656 C 263.332031 559.996094 263.867188 559.785156 264.410156 559.59375 C 264.953125 559.398438 265.503906 559.222656 266.054688 559.058594 C 266.609375 558.898438 267.167969 558.753906 267.730469 558.625 C 268.289062 558.496094 268.855469 558.382812 269.425781 558.289062 C 269.992188 558.191406 270.5625 558.113281 271.136719 558.050781 C 271.710938 557.988281 272.285156 557.945312 272.859375 557.914062 C 273.433594 557.886719 274.011719 557.875 274.585938 557.882812 C 275.164062 557.886719 275.738281 557.910156 276.316406 557.949219 C 276.890625 557.988281 277.464844 558.042969 278.035156 558.117188 C 278.605469 558.1875 279.175781 558.277344 279.742188 558.382812 C 280.308594 558.492188 280.871094 558.613281 281.429688 558.753906 C 281.992188 558.890625 282.546875 559.046875 283.09375 559.21875 C 283.644531 559.390625 284.191406 559.578125 284.730469 559.78125 C 285.269531 559.988281 285.800781 560.207031 286.328125 560.441406 C 286.855469 560.675781 287.375 560.925781 287.882812 561.191406 C 288.394531 561.457031 288.898438 561.738281 289.394531 562.03125 C 289.890625 562.328125 290.375 562.636719 290.851562 562.960938 C 291.332031 563.285156 291.796875 563.621094 292.253906 563.972656 C 292.710938 564.324219 293.15625 564.6875 293.59375 565.066406 C 294.03125 565.441406 294.453125 565.832031 294.867188 566.234375 C 295.28125 566.636719 295.679688 567.050781 296.070312 567.476562 C 296.457031 567.902344 296.835938 568.339844 297.199219 568.785156 C 297.558594 569.234375 297.910156 569.691406 298.246094 570.160156 C 298.582031 570.628906 298.90625 571.105469 299.210938 571.59375 C 299.519531 572.078125 299.816406 572.574219 300.09375 573.078125 C 300.371094 573.585938 300.636719 574.097656 300.886719 574.617188 C 301.132812 575.136719 301.367188 575.664062 301.585938 576.195312 C 301.804688 576.730469 302.007812 577.269531 302.191406 577.816406 C 302.378906 578.359375 302.550781 578.910156 302.703125 579.464844 C 302.859375 580.019531 302.996094 580.582031 303.117188 581.144531 C 303.238281 581.707031 303.34375 582.273438 303.429688 582.84375 C 303.519531 583.414062 303.589844 583.984375 303.644531 584.558594 C 303.699219 585.132812 303.738281 585.707031 303.757812 586.285156 C 303.777344 586.859375 303.78125 587.4375 303.769531 588.011719 C 303.757812 588.589844 303.726562 589.164062 303.679688 589.738281 C 303.632812 590.3125 303.570312 590.886719 303.488281 591.457031 C 303.40625 592.027344 303.3125 592.59375 303.195312 593.160156 C 303.082031 593.726562 302.953125 594.285156 302.804688 594.84375 C 302.660156 595.402344 302.496094 595.953125 302.316406 596.503906 C 302.136719 597.050781 301.945312 597.59375 301.730469 598.128906 C 301.519531 598.664062 301.296875 599.195312 301.054688 599.71875 C 300.8125 600.242188 300.554688 600.757812 300.28125 601.265625 C 300.007812 601.773438 299.722656 602.273438 299.421875 602.761719 C 299.117188 603.253906 298.804688 603.738281 298.472656 604.210938 C 298.144531 604.683594 297.800781 605.144531 297.441406 605.597656 C 297.085938 606.050781 296.714844 606.492188 296.332031 606.921875 C 295.949219 607.351562 295.554688 607.773438 295.148438 608.179688 C 294.738281 608.585938 294.320312 608.980469 293.890625 609.363281 C 293.457031 609.75 293.015625 610.117188 292.5625 610.476562 C 292.113281 610.832031 291.648438 611.175781 291.175781 611.503906 C 290.703125 611.835938 290.222656 612.152344 289.730469 612.453125 C 289.238281 612.753906 288.738281 613.042969 288.230469 613.3125 C 287.722656 613.585938 287.207031 613.84375 286.683594 614.085938 C 286.160156 614.328125 285.632812 614.554688 285.097656 614.765625 C 284.558594 614.976562 284.015625 615.171875 283.46875 615.351562 C 282.921875 615.53125 282.367188 615.691406 281.8125 615.839844 C 281.253906 615.984375 280.691406 616.117188 280.128906 616.230469 C 279.5625 616.34375 278.996094 616.441406 278.425781 616.519531 C 277.851562 616.601562 277.28125 616.664062 276.707031 616.710938 C 276.132812 616.757812 275.554688 616.789062 274.980469 616.800781 C 274.402344 616.816406 273.828125 616.8125 273.25 616.789062 C 272.675781 616.769531 272.101562 616.730469 271.527344 616.675781 C 270.953125 616.621094 270.382812 616.550781 269.8125 616.464844 C 269.242188 616.375 268.675781 616.269531 268.113281 616.148438 C 267.546875 616.027344 266.988281 615.890625 266.433594 615.738281 C 265.878906 615.582031 265.328125 615.410156 264.78125 615.226562 C 264.238281 615.039062 263.695312 614.835938 263.164062 614.617188 C 262.628906 614.402344 262.101562 614.167969 261.582031 613.917969 C 261.0625 613.667969 260.550781 613.40625 260.046875 613.125 C 259.542969 612.847656 259.046875 612.554688 258.558594 612.246094 C 258.074219 611.9375 257.59375 611.613281 257.128906 611.277344 C 256.660156 610.941406 256.199219 610.59375 255.753906 610.230469 C 255.304688 609.867188 254.867188 609.492188 254.441406 609.101562 C 254.015625 608.714844 253.605469 608.3125 253.203125 607.898438 C 252.800781 607.488281 252.410156 607.0625 252.03125 606.625 C 251.65625 606.191406 251.292969 605.746094 250.941406 605.285156 C 250.589844 604.828125 250.25 604.363281 249.929688 603.886719 C 249.605469 603.410156 249.296875 602.921875 249 602.425781 C 248.707031 601.933594 248.425781 601.429688 248.160156 600.917969 C 247.894531 600.40625 247.644531 599.886719 247.410156 599.359375 C 247.171875 598.835938 246.953125 598.300781 246.75 597.761719 C 246.546875 597.222656 246.359375 596.679688 246.1875 596.128906 C 246.015625 595.578125 245.859375 595.023438 245.71875 594.464844 C 245.582031 593.90625 245.457031 593.339844 245.351562 592.773438 C 245.246094 592.207031 245.15625 591.640625 245.082031 591.066406 C 245.011719 590.496094 244.953125 589.921875 244.914062 589.347656 C 244.875 588.773438 244.855469 588.195312 244.847656 587.621094 C 244.84375 587.042969 244.855469 586.46875 244.882812 585.890625 C 244.910156 585.316406 244.957031 584.742188 245.019531 584.167969 C 245.082031 583.597656 245.160156 583.023438 245.253906 582.457031 C 245.351562 581.886719 245.464844 581.324219 245.59375 580.761719 C 245.722656 580.199219 245.867188 579.640625 246.027344 579.089844 C 246.1875 578.535156 246.367188 577.988281 246.558594 577.445312 C 246.753906 576.902344 246.964844 576.363281 247.1875 575.832031 C 247.414062 575.304688 247.65625 574.78125 247.910156 574.261719 L 157.34375 483.695312 L 143.703125 489.550781 L 125.761719 471.609375 L 135.980469 465.335938 L 120.652344 466.5 Z M 92.203125 438.046875 " fill-opacity="1" fill-rule="nonzero"/></g></svg>