<svg xmlns="http://www.w3.org/2000/svg" xmlns:xlink="http://www.w3.org/1999/xlink" width="1080" zoomAndPan="magnify" viewBox="0 0 810 809.999993" height="1080" preserveAspectRatio="xMidYMid meet" version="1.0"><defs><clipPath id="ca9b1ec549"><path d="M 102 94.433594 L 708 94.433594 L 708 691.433594 L 102 691.433594 Z M 102 94.433594 " clip-rule="nonzero"/></clipPath></defs><g clip-path="url(#ca9b1ec549)"><path fill="#ffffff" d="M 131.425781 271.925781 L 272.613281 271.925781 C 276.726562 271.925781 280.683594 270.203125 283.472656 267.199219 C 286.261719 264.195312 287.683594 260.121094 287.375 256.019531 C 287.375 256.015625 287.375 256.015625 287.375 256.015625 C 284.914062 223.226562 263.816406 195.707031 235.019531 183.542969 C 245.800781 174.25 252.644531 160.515625 252.644531 145.199219 C 252.644531 117.285156 229.933594 94.574219 202.019531 94.574219 C 174.105469 94.574219 151.394531 117.285156 151.394531 145.199219 C 151.394531 160.511719 158.238281 174.25 169.019531 183.542969 C 140.222656 195.707031 119.125 223.226562 116.664062 256.015625 C 116.355469 260.117188 117.777344 264.191406 120.566406 267.199219 C 123.355469 270.203125 127.3125 271.925781 131.425781 271.925781 Z M 170.382812 145.199219 C 170.382812 127.753906 184.574219 113.5625 202.019531 113.5625 C 219.460938 113.5625 233.65625 127.753906 233.65625 145.199219 C 233.65625 162.644531 219.460938 176.835938 202.019531 176.835938 C 184.574219 176.835938 170.382812 162.644531 170.382812 145.199219 Z M 202.019531 195.824219 C 235.152344 195.824219 263.277344 220.566406 267.945312 252.9375 L 136.089844 252.9375 C 140.757812 220.566406 168.886719 195.824219 202.019531 195.824219 Z M 530.695312 266.785156 C 530.386719 270.890625 531.808594 274.964844 534.597656 277.96875 C 537.386719 280.972656 541.34375 282.695312 545.457031 282.695312 L 686.644531 282.695312 C 690.757812 282.695312 694.714844 280.972656 697.503906 277.96875 C 700.289062 274.964844 701.714844 270.890625 701.40625 266.785156 C 698.945312 234 677.847656 206.476562 649.050781 194.3125 C 659.832031 185.023438 666.675781 171.285156 666.675781 155.972656 C 666.675781 128.058594 643.964844 105.351562 616.050781 105.351562 C 588.136719 105.351562 565.425781 128.058594 565.425781 155.972656 C 565.425781 171.285156 572.269531 185.023438 583.050781 194.3125 C 554.253906 206.476562 533.15625 234 530.695312 266.785156 Z M 584.414062 155.972656 C 584.414062 138.527344 598.605469 124.335938 616.050781 124.335938 C 633.496094 124.335938 647.6875 138.527344 647.6875 155.972656 C 647.6875 173.414062 633.496094 187.605469 616.050781 187.605469 C 598.605469 187.605469 584.414062 173.417969 584.414062 155.972656 Z M 616.050781 206.597656 C 649.183594 206.597656 677.3125 231.335938 681.980469 263.707031 L 550.125 263.707031 C 554.792969 231.335938 582.917969 206.597656 616.050781 206.597656 Z M 287.375 663.492188 C 284.914062 630.707031 263.816406 603.183594 235.019531 591.019531 C 245.800781 581.730469 252.644531 567.992188 252.644531 552.679688 C 252.644531 524.761719 229.933594 502.054688 202.019531 502.054688 C 174.105469 502.054688 151.394531 524.765625 151.394531 552.679688 C 151.394531 567.992188 158.238281 581.730469 169.015625 591.019531 C 140.222656 603.183594 119.125 630.703125 116.664062 663.492188 C 116.355469 667.59375 117.777344 671.671875 120.566406 674.675781 C 123.351562 677.679688 127.3125 679.402344 131.425781 679.402344 L 272.613281 679.402344 C 276.726562 679.402344 280.683594 677.679688 283.472656 674.675781 C 286.257812 671.671875 287.683594 667.597656 287.375 663.496094 C 287.375 663.492188 287.375 663.492188 287.375 663.492188 Z M 170.382812 552.679688 C 170.382812 535.234375 184.574219 521.042969 202.019531 521.042969 C 219.460938 521.042969 233.65625 535.234375 233.65625 552.679688 C 233.65625 570.113281 219.476562 584.300781 202.042969 584.3125 C 202.035156 584.3125 202.027344 584.3125 202.019531 584.3125 C 202.011719 584.3125 202.003906 584.3125 201.996094 584.3125 C 184.5625 584.300781 170.382812 570.113281 170.382812 552.679688 Z M 136.09375 660.414062 C 140.757812 628.050781 168.871094 603.316406 201.996094 603.304688 C 202.003906 603.304688 202.011719 603.304688 202.019531 603.304688 C 202.027344 603.304688 202.035156 603.304688 202.042969 603.304688 C 235.167969 603.316406 263.28125 628.050781 267.945312 660.414062 Z M 649.054688 591.019531 C 659.832031 581.730469 666.675781 567.992188 666.675781 552.679688 C 666.675781 524.761719 643.964844 502.054688 616.050781 502.054688 C 588.136719 502.054688 565.425781 524.765625 565.425781 552.679688 C 565.425781 567.992188 572.269531 581.726562 583.050781 591.019531 C 554.253906 603.183594 533.15625 630.707031 530.695312 663.492188 C 530.386719 667.59375 531.808594 671.671875 534.597656 674.675781 C 537.386719 677.679688 541.34375 679.402344 545.457031 679.402344 L 686.644531 679.402344 C 690.757812 679.402344 694.714844 677.679688 697.503906 674.675781 C 700.289062 671.671875 701.714844 667.59375 701.40625 663.492188 C 698.945312 630.707031 677.847656 603.183594 649.054688 591.019531 Z M 584.414062 552.679688 C 584.414062 535.234375 598.605469 521.042969 616.050781 521.042969 C 633.496094 521.042969 647.6875 535.234375 647.6875 552.679688 C 647.6875 570.113281 633.507812 584.300781 616.074219 584.3125 C 616.066406 584.3125 616.058594 584.3125 616.050781 584.3125 C 616.042969 584.3125 616.035156 584.3125 616.027344 584.3125 C 598.59375 584.300781 584.414062 570.113281 584.414062 552.679688 Z M 550.125 660.414062 C 554.789062 628.050781 582.902344 603.316406 616.027344 603.304688 C 616.035156 603.304688 616.042969 603.304688 616.050781 603.304688 C 616.058594 603.304688 616.066406 603.304688 616.074219 603.304688 C 649.199219 603.316406 677.3125 628.050781 681.980469 660.414062 Z M 515.875 649.207031 C 517.691406 654.125 515.175781 659.585938 510.253906 661.398438 C 477.878906 673.34375 443.820312 679.402344 409.035156 679.402344 C 383.789062 679.402344 358.921875 676.199219 334.800781 669.882812 L 339.5 676.632812 C 342.496094 680.933594 341.433594 686.851562 337.128906 689.847656 C 335.476562 691 333.585938 691.550781 331.714844 691.550781 C 328.710938 691.550781 325.757812 690.132812 323.914062 687.480469 L 303.316406 657.890625 C 301.730469 655.609375 301.222656 652.742188 301.929688 650.050781 C 302.636719 647.359375 304.492188 645.117188 307 643.910156 L 339.492188 628.296875 C 344.21875 626.027344 349.890625 628.015625 352.160156 632.742188 C 354.433594 637.46875 352.441406 643.140625 347.714844 645.414062 L 336.667969 650.722656 C 360.140625 657.152344 384.390625 660.417969 409.035156 660.417969 C 441.570312 660.417969 473.414062 654.753906 503.679688 643.585938 C 508.601562 641.773438 514.0625 644.289062 515.875 649.207031 Z M 268.636719 141.132812 C 266.1875 136.496094 267.960938 130.75 272.59375 128.300781 C 314.339844 106.238281 361.523438 94.574219 409.035156 94.574219 C 447.761719 94.574219 486.246094 102.324219 521.769531 117.136719 L 518.039062 109.777344 C 515.667969 105.101562 517.539062 99.386719 522.214844 97.019531 C 526.894531 94.644531 532.605469 96.519531 534.976562 101.195312 L 551.273438 133.351562 C 552.53125 135.835938 552.636719 138.742188 551.5625 141.308594 C 550.488281 143.878906 548.34375 145.84375 545.691406 146.6875 L 511.347656 157.648438 C 510.386719 157.957031 509.414062 158.101562 508.457031 158.101562 C 504.4375 158.101562 500.703125 155.527344 499.414062 151.492188 C 497.820312 146.496094 500.578125 141.152344 505.574219 139.558594 L 517.203125 135.847656 C 483.230469 121.238281 446.261719 113.566406 409.035156 113.566406 C 364.601562 113.566406 320.488281 124.464844 281.464844 145.089844 C 276.832031 147.539062 271.085938 145.765625 268.636719 141.132812 Z M 116.621094 386.988281 C 116.621094 364.628906 119.144531 342.527344 124.117188 320.984375 L 117.5 325.882812 C 113.285156 329 107.339844 328.113281 104.21875 323.898438 C 101.101562 319.683594 101.988281 313.738281 106.203125 310.617188 L 135.183594 289.171875 C 137.417969 287.519531 140.269531 286.925781 142.980469 287.558594 C 145.691406 288.1875 147.988281 289.972656 149.265625 292.445312 L 165.816406 324.472656 C 168.222656 329.132812 166.398438 334.859375 161.738281 337.265625 C 160.347656 337.984375 158.855469 338.328125 157.390625 338.328125 C 153.949219 338.328125 150.632812 336.453125 148.945312 333.191406 L 143.3125 322.292969 C 138.199219 343.371094 135.609375 365.042969 135.609375 386.988281 C 135.609375 424.511719 143.085938 460.882812 157.828125 495.089844 C 159.902344 499.90625 157.679688 505.492188 152.863281 507.566406 C 151.640625 508.09375 150.363281 508.34375 149.113281 508.34375 C 145.433594 508.34375 141.933594 506.195312 140.386719 502.605469 C 124.617188 466.011719 116.621094 427.109375 116.621094 386.988281 Z M 703.019531 492.410156 L 672.09375 510.941406 C 670.601562 511.835938 668.914062 512.289062 667.214844 512.289062 C 666.191406 512.289062 665.167969 512.125 664.175781 511.792969 C 661.539062 510.902344 659.425781 508.898438 658.394531 506.316406 L 645.035156 472.832031 C 643.089844 467.960938 645.464844 462.4375 650.332031 460.496094 C 655.203125 458.550781 660.726562 460.921875 662.671875 465.796875 L 667.210938 477.179688 C 677.328125 448.285156 682.460938 418.03125 682.460938 386.988281 C 682.460938 360.914062 678.777344 335.089844 671.519531 310.226562 C 670.050781 305.191406 672.941406 299.917969 677.972656 298.449219 C 683.007812 296.984375 688.28125 299.871094 689.746094 304.902344 C 697.511719 331.496094 701.449219 359.113281 701.449219 386.988281 C 701.449219 419.078125 696.320312 450.378906 686.203125 480.347656 L 693.257812 476.121094 C 697.757812 473.425781 703.585938 474.886719 706.28125 479.382812 C 708.976562 483.882812 707.515625 489.714844 703.019531 492.410156 Z M 571.503906 493.882812 C 572.621094 493.882812 573.753906 493.777344 574.894531 493.546875 L 614.246094 485.710938 C 623.613281 483.84375 629.71875 474.703125 627.851562 465.332031 L 597.273438 311.835938 C 596.371094 307.304688 593.75 303.390625 589.898438 300.820312 C 586.042969 298.246094 581.425781 297.324219 576.894531 298.226562 L 537.542969 306.066406 C 533.011719 306.96875 529.101562 309.589844 526.527344 313.441406 C 524.023438 317.191406 523.097656 321.664062 523.882812 326.078125 C 501.378906 333.078125 474.183594 334.242188 440.5625 306.503906 C 423.332031 292.289062 400.835938 291.847656 384.59375 305.414062 L 369.386719 318.113281 L 285.652344 318.113281 C 283.867188 312.164062 278.945312 307.363281 272.445312 306.066406 L 233.09375 298.230469 C 228.5625 297.324219 223.945312 298.246094 220.089844 300.820312 C 216.238281 303.394531 213.617188 307.308594 212.71875 311.835938 L 182.136719 465.332031 C 180.269531 474.703125 186.375 483.84375 195.746094 485.710938 L 235.097656 493.546875 C 236.234375 493.777344 237.367188 493.882812 238.484375 493.882812 C 245.386719 493.882812 251.664062 489.722656 254.386719 483.394531 L 344.652344 573.660156 C 350.675781 579.683594 358.707031 583 367.265625 583 C 375.824219 583 383.855469 579.683594 389.875 573.660156 C 393.089844 570.449219 395.535156 566.664062 397.113281 562.527344 L 407.054688 572.472656 C 419.523438 584.9375 439.8125 584.9375 452.28125 572.46875 C 455.636719 569.113281 458.089844 565.1875 459.636719 561.003906 C 465.128906 565.128906 471.789062 567.355469 478.808594 567.355469 C 487.367188 567.355469 495.398438 564.039062 501.421875 558.019531 C 507.402344 552.035156 510.714844 544.066406 510.757812 535.570312 C 518.894531 535.53125 527.023438 532.414062 533.21875 526.21875 C 541.273438 518.164062 544.269531 506.308594 541.496094 495.515625 L 555.058594 481.957031 C 557.394531 489.085938 564.089844 493.882812 571.503906 493.882812 Z M 578.972656 317.175781 L 608.902344 467.410156 L 572.8125 474.601562 L 542.886719 324.367188 Z M 396.765625 319.988281 C 405.914062 312.347656 418.363281 312.808594 428.480469 321.152344 C 468.121094 353.859375 501.554688 352.53125 527.59375 344.808594 L 550.480469 459.683594 L 530.53125 479.628906 L 439.917969 387.695312 C 439.796875 387.574219 439.675781 387.457031 439.550781 387.339844 C 420.082031 369.605469 402.179688 361.949219 390.4375 366.332031 C 384.488281 368.550781 380.628906 373.59375 379.851562 380.164062 C 379.84375 380.238281 379.835938 380.316406 379.828125 380.390625 C 379.640625 382.371094 379.46875 384.34375 379.292969 386.304688 C 377.136719 410.820312 375.511719 429.277344 352.964844 438.507812 L 339.179688 375.339844 C 338.070312 370.253906 341.1875 366.390625 344 364.042969 Z M 237.175781 474.601562 L 201.085938 467.410156 L 231.015625 317.175781 L 267.105469 324.363281 Z M 519.792969 512.792969 C 514.726562 517.859375 506.488281 517.859375 501.421875 512.792969 L 434.476562 445.847656 C 430.769531 442.144531 424.757812 442.140625 421.050781 445.847656 C 417.34375 449.558594 417.34375 455.566406 421.050781 459.277344 L 487.996094 526.222656 C 493.058594 531.285156 493.058594 539.527344 487.996094 544.589844 C 485.5625 547.027344 482.296875 548.367188 478.8125 548.367188 C 475.324219 548.367188 472.0625 547.027344 469.628906 544.589844 L 398.890625 473.851562 C 395.179688 470.144531 389.171875 470.144531 385.460938 473.851562 C 381.753906 477.5625 381.753906 483.570312 385.460938 487.28125 L 438.855469 540.675781 C 443.921875 545.738281 443.921875 553.980469 438.855469 559.042969 C 433.789062 564.109375 425.550781 564.109375 420.488281 559.042969 L 363.300781 501.859375 C 359.59375 498.152344 353.582031 498.152344 349.875 501.859375 C 346.164062 505.566406 346.164062 511.578125 349.875 515.285156 L 376.453125 541.863281 C 378.890625 544.300781 380.230469 547.5625 380.230469 551.046875 C 380.230469 554.535156 378.890625 557.796875 376.453125 560.234375 C 374.015625 562.667969 370.753906 564.011719 367.269531 564.011719 C 363.78125 564.011719 360.519531 562.667969 358.082031 560.230469 L 259.183594 461.332031 L 283.933594 337.097656 L 346.644531 337.097656 L 331.832031 349.46875 C 322.300781 357.425781 318.21875 368.332031 320.632812 379.390625 L 336.636719 452.738281 C 337.183594 455.238281 338.71875 457.414062 340.890625 458.769531 C 343.066406 460.125 345.691406 460.542969 348.183594 459.929688 C 392.847656 448.925781 395.699219 416.542969 398.214844 387.96875 C 398.328125 386.691406 398.4375 385.410156 398.554688 384.125 C 402.792969 384.621094 412.953125 388.839844 426.578125 401.207031 L 522.585938 498.617188 C 524.558594 503.421875 523.488281 509.097656 519.792969 512.792969 Z M 519.792969 512.792969 " fill-opacity="1" fill-rule="nonzero"/></g></svg>