<svg xmlns="http://www.w3.org/2000/svg" xmlns:xlink="http://www.w3.org/1999/xlink" width="1080" zoomAndPan="magnify" viewBox="0 0 810 809.999993" height="1080" preserveAspectRatio="xMidYMid meet" version="1.0"><defs><clipPath id="bd0e33543e"><path d="M 108 93.101562 L 702 93.101562 L 702 699.851562 L 108 699.851562 Z M 108 93.101562 " clip-rule="nonzero"/></clipPath></defs><g clip-path="url(#bd0e33543e)"><path fill="#ffffff" d="M 554.316406 292.214844 L 604.101562 292.214844 C 608.847656 292.214844 612.695312 296.054688 612.695312 300.808594 C 612.695312 305.550781 608.847656 309.402344 604.101562 309.402344 L 554.316406 309.402344 C 549.582031 309.402344 545.726562 305.550781 545.726562 300.808594 C 545.726562 296.054688 549.582031 292.214844 554.316406 292.214844 Z M 504.507812 201.289062 C 501.148438 197.9375 501.148438 192.488281 504.507812 189.136719 L 539.703125 153.941406 C 543.058594 150.574219 548.5 150.574219 551.859375 153.941406 C 555.210938 157.292969 555.210938 162.726562 551.859375 166.09375 L 516.664062 201.292969 C 513.300781 204.65625 507.847656 204.644531 504.507812 201.289062 Z M 197.289062 300.808594 C 197.289062 296.058594 201.148438 292.214844 205.882812 292.214844 L 255.667969 292.214844 C 260.410156 292.214844 264.261719 296.054688 264.261719 300.808594 C 264.261719 305.550781 260.410156 309.402344 255.667969 309.402344 L 205.882812 309.402344 C 201.148438 309.398438 197.289062 305.550781 197.289062 300.808594 Z M 258.125 166.09375 C 254.773438 162.726562 254.773438 157.292969 258.125 153.941406 C 261.484375 150.574219 266.929688 150.574219 270.28125 153.941406 L 305.476562 189.136719 C 310.921875 194.570312 306.988281 203.8125 299.394531 203.8125 C 297.203125 203.8125 295.003906 202.972656 293.324219 201.289062 Z M 396.398438 151.46875 L 396.398438 101.695312 C 396.398438 96.953125 400.242188 93.101562 404.992188 93.101562 C 409.742188 93.101562 413.585938 96.953125 413.585938 101.695312 L 413.585938 151.46875 C 413.585938 156.226562 409.746094 160.066406 404.992188 160.066406 C 400.242188 160.066406 396.398438 156.226562 396.398438 151.46875 Z M 404.992188 200.0625 C 445.347656 200.0625 478.171875 229.691406 478.171875 266.132812 C 478.171875 281.367188 472.277344 296.242188 461.566406 308.015625 C 446.234375 324.871094 441.984375 336.65625 434.230469 356.472656 C 433.113281 356.316406 431.96875 356.199219 430.800781 356.199219 L 379.183594 356.199219 C 378.015625 356.199219 376.871094 356.316406 375.753906 356.472656 C 368.003906 336.664062 363.75 324.863281 348.417969 308.015625 C 337.707031 296.242188 331.8125 281.367188 331.8125 266.132812 C 331.816406 229.691406 364.640625 200.0625 404.992188 200.0625 Z M 413.851562 419.445312 L 396.144531 419.445312 C 388.546875 419.445312 382.449219 413.375 382.449219 405.496094 L 427.539062 405.496094 C 427.539062 413.375 421.4375 419.445312 413.851562 419.445312 Z M 438.261719 380.851562 C 438.261719 384.949219 434.917969 388.308594 430.804688 388.308594 L 379.183594 388.308594 C 375.070312 388.308594 371.726562 384.949219 371.726562 380.851562 C 371.726562 376.738281 375.070312 373.394531 379.183594 373.394531 L 430.804688 373.394531 C 434.917969 373.394531 438.261719 376.738281 438.261719 380.851562 Z M 354.996094 350.640625 L 360.542969 364.777344 C 350.90625 375.898438 353.152344 392.84375 365.253906 401.164062 L 365.253906 405.746094 C 365.253906 422.773438 379.105469 436.640625 396.144531 436.640625 L 413.851562 436.640625 C 430.882812 436.640625 444.730469 422.773438 444.730469 405.746094 L 444.730469 401.164062 C 456.851562 392.832031 459.078125 375.910156 449.449219 364.761719 C 456.640625 346.425781 460.183594 335.085938 474.289062 319.585938 C 487.882812 304.640625 495.363281 285.660156 495.363281 266.132812 C 495.363281 220.210938 454.824219 182.867188 404.992188 182.867188 C 355.160156 182.867188 314.628906 220.210938 314.628906 266.132812 C 314.628906 285.660156 322.101562 304.640625 335.695312 319.585938 C 344.359375 329.105469 350.308594 338.679688 354.996094 350.640625 Z M 680.019531 667.578125 C 677.105469 669.738281 675.023438 671.074219 670.941406 670.363281 C 668.019531 669.859375 665.878906 668.472656 664.238281 666.007812 C 648.492188 642.539062 627.59375 624.21875 600.332031 609.988281 C 594.632812 607.011719 587.789062 611.140625 587.757812 617.5625 L 587.429688 679.453125 C 587.429688 681.117188 586.015625 682.550781 584.335938 682.550781 L 509.382812 682.550781 C 507.707031 682.550781 506.289062 681.117188 506.289062 679.453125 L 506.289062 580.800781 C 506.289062 577.183594 504.011719 573.941406 500.582031 572.714844 C 463.394531 559.441406 435.421875 536.671875 415.078125 503.105469 C 412.246094 498.441406 413.578125 492.414062 418.09375 489.378906 C 421.183594 487.304688 423.289062 486.121094 427.277344 486.984375 C 430.179688 487.617188 432.253906 489.101562 433.804688 491.628906 C 470.867188 552.378906 536.328125 571.25 594.09375 587.894531 C 631.777344 599.566406 660.683594 621.109375 682.449219 653.738281 C 685.46875 658.269531 684.40625 664.34375 680.019531 667.578125 Z M 394.914062 503.105469 C 374.5625 536.667969 346.589844 559.441406 309.40625 572.714844 C 305.984375 573.941406 303.695312 577.1875 303.695312 580.800781 L 303.695312 679.453125 C 303.695312 681.117188 302.28125 682.550781 300.601562 682.550781 L 225.660156 682.550781 C 223.980469 682.550781 222.5625 681.117188 222.5625 679.398438 L 222.230469 617.5625 C 222.195312 611.085938 215.304688 607.039062 209.65625 609.988281 C 182.398438 624.21875 161.496094 642.539062 145.753906 666.007812 C 142.496094 670.871094 135.96875 672.011719 131.257812 668.539062 L 129.96875 667.578125 C 125.589844 664.34375 124.519531 658.273438 127.542969 653.738281 C 149.300781 621.101562 178.207031 599.566406 215.890625 587.894531 C 273.664062 571.253906 339.128906 552.378906 376.191406 491.628906 C 379.238281 486.628906 385.699219 485.210938 390.570312 488.488281 L 391.890625 489.382812 C 396.40625 492.414062 397.738281 498.441406 394.914062 503.105469 Z M 696.753906 644.195312 C 673.027344 608.617188 640.171875 584.144531 599.09375 571.445312 C 599.039062 571.4375 598.992188 571.414062 598.929688 571.402344 C 541.484375 554.851562 482.074219 537.742188 448.476562 482.675781 C 440.304688 469.300781 422.839844 465.488281 409.828125 474.214844 L 404.992188 477.949219 C 397.988281 471.347656 388.714844 468.074219 379.03125 470.1875 C 371.550781 471.820312 365.5 476.144531 361.503906 482.675781 C 327.910156 537.742188 268.496094 554.851562 211.050781 571.402344 C 210.988281 571.417969 210.945312 571.441406 210.886719 571.445312 C 169.8125 584.144531 136.957031 608.617188 113.230469 644.195312 C 105.105469 656.375 107.972656 672.734375 119.761719 681.414062 C 126.652344 686.5 133.230469 688.835938 141.988281 687.308594 C 149.53125 685.996094 155.769531 681.945312 160.03125 675.582031 C 171.648438 658.273438 186.46875 644.035156 205.109375 632.367188 L 205.367188 679.457031 C 205.367188 690.636719 214.464844 699.734375 225.65625 699.734375 L 300.597656 699.734375 C 311.789062 699.734375 320.886719 690.636719 320.886719 679.457031 L 320.886719 586.773438 C 355.992188 573.019531 384.226562 550.339844 404.992188 519.242188 C 425.761719 550.34375 453.992188 573.019531 489.09375 586.773438 L 489.09375 679.457031 C 489.09375 690.636719 498.191406 699.734375 509.382812 699.734375 L 584.335938 699.734375 C 595.515625 699.734375 604.613281 690.636719 604.613281 679.5 L 604.871094 632.367188 C 623.519531 644.03125 638.332031 658.269531 649.953125 675.582031 C 658.660156 688.570312 676.347656 691.675781 688.929688 682.371094 L 690.21875 681.414062 C 702.011719 672.734375 704.886719 656.375 696.753906 644.195312 Z M 572.71875 523.582031 C 591.085938 523.582031 606.03125 508.636719 606.03125 490.269531 C 606.03125 471.890625 591.085938 456.945312 572.71875 456.945312 C 554.339844 456.945312 539.394531 471.890625 539.394531 490.269531 C 539.394531 508.636719 554.339844 523.582031 572.71875 523.582031 Z M 572.71875 439.757812 C 544.863281 439.757812 522.210938 462.410156 522.210938 490.269531 C 522.210938 518.117188 544.863281 540.777344 572.71875 540.777344 C 600.566406 540.777344 623.226562 518.113281 623.226562 490.269531 C 623.226562 462.410156 600.566406 439.757812 572.71875 439.757812 Z M 237.277344 456.945312 C 218.902344 456.945312 203.953125 471.890625 203.953125 490.265625 C 203.953125 508.632812 218.902344 523.582031 237.277344 523.582031 C 255.644531 523.582031 270.589844 508.632812 270.589844 490.265625 C 270.589844 471.890625 255.644531 456.945312 237.277344 456.945312 Z M 237.277344 540.777344 C 265.125 540.777344 287.785156 518.113281 287.785156 490.269531 C 287.785156 462.410156 265.125 439.757812 237.277344 439.757812 C 209.421875 439.757812 186.769531 462.410156 186.769531 490.269531 C 186.769531 518.113281 209.421875 540.777344 237.277344 540.777344 Z M 237.277344 540.777344 " fill-opacity="1" fill-rule="evenodd"/></g></svg>