<svg xmlns="http://www.w3.org/2000/svg" xmlns:xlink="http://www.w3.org/1999/xlink" width="1080" zoomAndPan="magnify" viewBox="0 0 810 809.999993" height="1080" preserveAspectRatio="xMidYMid meet" version="1.0"><defs><clipPath id="7d465b7b09"><path d="M 118.296875 95.761719 L 691.726562 95.761719 L 691.726562 675.886719 L 118.296875 675.886719 Z M 118.296875 95.761719 " clip-rule="nonzero"/></clipPath><clipPath id="39cc191278"><path d="M 214.609375 642 L 229.167969 642 L 229.167969 676.261719 L 214.609375 676.261719 Z M 214.609375 642 " clip-rule="nonzero"/></clipPath></defs><g clip-path="url(#7d465b7b09)"><path fill="#ffffff" d="M 677.207031 398.359375 C 675.773438 401.871094 672.996094 404.671875 669.492188 406.132812 L 664.015625 408.429688 L 644.328125 346.910156 L 644.058594 346.394531 C 640.746094 340.007812 634.21875 335.929688 627.027344 335.765625 C 617.132812 335.558594 607.820312 340.4375 602.363281 348.691406 L 602.238281 348.878906 C 596.625 358.71875 594.507812 370.171875 596.238281 381.371094 C 597.9375 392.175781 602.5625 420.1875 604.433594 431.519531 C 601.859375 432.992188 599.382812 434.636719 597.019531 436.4375 C 597.015625 436.441406 597.007812 436.445312 597 436.449219 L 481.535156 484.726562 L 468.199219 490.292969 L 460.523438 493.507812 C 460.222656 491.75 459.703125 490.039062 458.96875 488.410156 L 429.089844 421.640625 C 440.109375 422.492188 452.886719 421.890625 462.484375 416.800781 C 469.441406 413.105469 475.394531 407.769531 479.832031 401.257812 C 480.324219 400.53125 480.804688 399.792969 481.257812 399.039062 C 483.84375 394.785156 485.769531 390.15625 486.980469 385.320312 C 487.035156 385.113281 487.089844 384.882812 487.125 384.675781 C 487.136719 384.640625 487.144531 384.609375 487.144531 384.574219 C 489.78125 375.386719 489.648438 365.625 486.753906 356.519531 C 478.632812 330.664062 451.089844 316.285156 425.234375 324.40625 C 412.777344 328.320312 402.402344 337.027344 396.386719 348.613281 C 394.054688 343.417969 391.347656 337.34375 388.457031 330.882812 C 388.457031 330.875 388.445312 330.875 388.445312 330.859375 C 385.789062 324.492188 382.765625 317.828125 379.703125 311.292969 C 374.15625 298.886719 368.742188 286.792969 364.835938 278.066406 C 364.0625 276.328125 363.03125 274.710938 361.777344 273.277344 L 450.367188 236.722656 C 454.011719 235.1875 456.300781 231.527344 456.089844 227.582031 C 455.917969 223.664062 453.277344 220.285156 449.515625 219.167969 C 430.695312 213.417969 420.101562 193.496094 425.855469 174.675781 C 431.613281 155.851562 451.535156 145.257812 470.355469 151.011719 C 479.355469 153.761719 486.898438 159.960938 491.34375 168.257812 C 496.5625 178.113281 494.828125 194.992188 493.84375 201.800781 C 493.027344 207.371094 496.890625 212.546875 502.464844 213.359375 C 504.285156 213.621094 506.140625 213.390625 507.839844 212.6875 L 589.785156 178.429688 L 677.160156 387.402344 C 678.640625 390.902344 678.65625 394.851562 677.207031 398.359375 Z M 642.398438 514.394531 C 641.878906 516.433594 641.015625 518.367188 639.859375 520.117188 L 639.734375 520.308594 C 639.691406 520.375 636.339844 525.84375 632.421875 531.910156 C 631.972656 532.605469 631.507812 533.300781 631.046875 534.003906 L 497.402344 534.128906 C 497.023438 533.75 496.65625 533.367188 496.296875 532.980469 L 496.28125 532.980469 C 487.605469 523.777344 482.484375 511.785156 481.847656 499.152344 L 578.789062 458.621094 C 576.707031 462.472656 574.691406 466.449219 572.796875 470.5 L 584.960938 476.203125 C 587.433594 470.929688 590.097656 465.777344 592.882812 460.894531 C 595.738281 455.988281 599.480469 451.65625 603.917969 448.117188 L 603.933594 448.117188 C 607.132812 445.476562 610.65625 443.25 614.414062 441.496094 L 619.375 439.472656 L 618.503906 434.183594 C 618.492188 434.082031 618.089844 431.675781 617.464844 427.878906 C 615.457031 415.78125 611.144531 389.613281 609.519531 379.285156 C 608.246094 371.234375 609.730469 362.984375 613.71875 355.878906 C 616.617188 351.714844 621.359375 349.222656 626.429688 349.191406 C 628.667969 349.128906 630.757812 350.28125 631.910156 352.195312 L 651.574219 413.621094 L 655.683594 426.464844 L 661.308594 444.015625 Z M 638.175781 547.464844 L 638.660156 581.261719 C 637.902344 581.789062 636.992188 582.058594 636.070312 582.023438 L 490.535156 583.171875 C 489.578125 583.238281 488.625 582.960938 487.847656 582.398438 L 487.351562 547.597656 Z M 442.550781 504.808594 C 424.148438 513.050781 393.015625 526.984375 373.84375 535.570312 C 380.5625 509.3125 364.722656 482.582031 338.46875 475.859375 C 312.207031 469.140625 285.476562 484.976562 278.753906 511.234375 C 276.40625 520.429688 276.769531 530.105469 279.800781 539.101562 C 283.589844 550.242188 293.734375 560.121094 303.019531 567.257812 L 227.054688 601.246094 L 132.988281 391.070312 C 129.765625 383.847656 133 375.378906 140.21875 372.140625 L 146.140625 369.484375 L 167.886719 437.421875 L 168.160156 437.949219 C 171.472656 444.335938 178.003906 448.410156 185.203125 448.574219 C 185.5625 448.589844 185.917969 448.597656 186.277344 448.597656 C 195.792969 448.425781 204.613281 443.578125 209.863281 435.640625 L 209.976562 435.453125 C 215.601562 425.617188 217.71875 414.167969 215.976562 402.972656 C 214.285156 392.164062 209.660156 364.144531 207.78125 352.820312 C 216.722656 347.785156 224.300781 340.652344 229.855469 332.023438 L 330.433594 287.015625 L 343.535156 281.148438 L 344.792969 280.585938 C 345.542969 280.246094 346.363281 280.070312 347.1875 280.070312 C 347.90625 280.070312 348.625 280.203125 349.292969 280.464844 C 350.753906 281.019531 351.9375 282.128906 352.574219 283.558594 C 358.488281 296.761719 367.835938 317.65625 375.90625 335.699219 C 375.914062 335.742188 375.933594 335.78125 375.957031 335.820312 C 380.652344 347.066406 384.90625 357.269531 387.6875 363.933594 C 389.679688 368.707031 395.167969 370.960938 399.9375 368.964844 C 402.503906 367.894531 404.457031 365.734375 405.28125 363.082031 C 409.777344 343.929688 428.953125 332.046875 448.109375 336.542969 C 467.265625 341.046875 479.144531 360.21875 474.644531 379.371094 C 472.375 389.027344 466.191406 397.300781 457.566406 402.199219 C 447.847656 407.667969 430.890625 406.34375 424.0625 405.527344 C 420.417969 405.089844 416.820312 406.644531 414.644531 409.59375 C 414.589844 409.652344 414.546875 409.722656 414.507812 409.792969 C 412.441406 412.730469 412.078125 416.53125 413.542969 419.808594 L 446.707031 493.902344 C 448.558594 498.058594 446.699219 502.9375 442.550781 504.808594 Z M 322.28125 238.054688 L 322.101562 238.054688 L 321.96875 237.839844 L 176.746094 239.003906 C 175.789062 239.074219 174.828125 238.800781 174.058594 238.21875 L 174.039062 236.875 L 173.566406 203.089844 C 174.320312 202.554688 175.230469 202.289062 176.15625 202.328125 L 321.6875 201.167969 C 322.648438 201.105469 323.601562 201.382812 324.375 201.949219 L 324.871094 237.292969 C 324.113281 237.824219 323.207031 238.089844 322.285156 238.054688 Z M 238.519531 313.414062 L 220.421875 321.519531 C 220.054688 322.167969 219.695312 322.808594 219.339844 323.4375 C 211.65625 336.933594 197.914062 342.785156 197.800781 342.835938 L 192.839844 344.871094 L 193.414062 348.332031 L 193.714844 350.15625 C 193.789062 350.574219 200.578125 391.480469 202.695312 405.054688 C 203.976562 413.101562 202.503906 421.347656 198.503906 428.453125 C 195.617188 432.625 190.871094 435.128906 185.796875 435.148438 C 183.5625 435.210938 181.460938 434.066406 180.308594 432.148438 L 158.480469 363.964844 L 154.359375 351.078125 L 150.910156 340.316406 L 169.816406 269.945312 C 170.339844 267.914062 171.203125 265.976562 172.367188 264.226562 L 172.480469 264.035156 C 172.523438 263.96875 175.882812 258.488281 179.804688 252.421875 L 315.910156 251.351562 L 315.921875 251.351562 C 321.757812 257.539062 326.027344 265.035156 328.386719 273.207031 Z M 689.5625 382.21875 L 597 160.847656 L 507.820312 198.128906 C 508.859375 187.640625 508.929688 172.726562 503.21875 161.953125 C 490.4375 138.050781 460.703125 129.035156 436.804688 141.8125 C 412.902344 154.589844 403.886719 184.320312 416.664062 208.222656 C 421.136719 216.589844 427.9375 223.480469 436.246094 228.0625 L 342.140625 267.304688 C 341.6875 267.433594 341.226562 267.5625 340.777344 267.726562 C 338.640625 261 335.449219 254.65625 331.316406 248.933594 C 332.5 248.265625 333.582031 247.445312 334.542969 246.476562 C 336.914062 244.160156 338.269531 240.988281 338.304688 237.660156 L 338.304688 237.496094 L 337.796875 201.390625 C 337.796875 201.140625 337.765625 200.898438 337.742188 200.652344 L 345.410156 200.589844 C 349.117188 200.558594 352.101562 197.527344 352.074219 193.820312 C 352.074219 193.804688 352.070312 193.796875 352.070312 193.785156 L 350.8125 95.761719 L 337.371094 95.9375 L 338.550781 187.210938 L 159.015625 188.648438 L 157.839844 95.761719 L 144.398438 95.933594 L 145.664062 195.507812 C 145.707031 199.1875 148.703125 202.140625 152.382812 202.140625 L 152.433594 202.140625 L 160.148438 202.078125 C 160.136719 202.34375 160.113281 202.605469 160.117188 202.878906 L 160.632812 238.984375 C 160.738281 243 162.726562 246.730469 165.996094 249.0625 C 163.410156 253.128906 161.449219 256.320312 161.078125 256.921875 C 159.132812 259.894531 157.691406 263.160156 156.800781 266.601562 L 156.597656 267.410156 L 156.441406 267.371094 L 136.914062 340.660156 L 142.019531 356.605469 L 134.730469 359.863281 C 120.738281 366.121094 114.464844 382.535156 120.71875 396.53125 C 120.722656 396.539062 120.726562 396.546875 120.730469 396.554688 L 220.277344 619.003906 L 313.625 577.234375 C 318.757812 574.925781 321.046875 568.894531 318.742188 563.757812 C 317.988281 562.085938 316.796875 560.648438 315.292969 559.59375 C 303.332031 551.191406 295.035156 542.160156 292.527344 534.78125 C 286.261719 516.125 296.300781 495.921875 314.957031 489.660156 C 333.609375 483.390625 353.808594 493.433594 360.078125 512.082031 C 363.0625 520.964844 362.425781 530.664062 358.308594 539.078125 C 356.003906 543.703125 357.886719 549.324219 362.507812 551.636719 C 365.019531 552.886719 367.960938 552.949219 370.519531 551.800781 C 387.238281 544.296875 426.425781 526.746094 448.039062 517.070312 C 451.695312 515.441406 454.828125 512.824219 457.078125 509.511719 L 468.835938 504.59375 C 470.1875 515.71875 474.339844 526.3125 480.90625 535.390625 C 479.726562 536.066406 478.636719 536.898438 477.671875 537.859375 C 475.253906 540.21875 473.898438 543.457031 473.910156 546.839844 L 474.414062 582.949219 C 474.414062 583.195312 474.449219 583.433594 474.46875 583.679688 L 466.816406 583.742188 C 463.105469 583.773438 460.117188 586.804688 460.148438 590.519531 C 460.148438 590.53125 460.148438 590.546875 460.148438 590.5625 L 461.414062 675.144531 L 474.851562 674.949219 L 473.6875 597.128906 L 653.222656 595.6875 L 654.386719 675.144531 L 667.824219 674.949219 L 666.566406 588.820312 C 666.507812 585.144531 663.515625 582.195312 659.84375 582.195312 L 659.789062 582.195312 L 652.070312 582.257812 C 652.085938 581.996094 652.105469 581.734375 652.101562 581.476562 L 651.597656 545.367188 C 651.496094 541.351562 649.503906 537.613281 646.222656 535.296875 C 648.808594 531.214844 650.773438 528.023438 651.140625 527.425781 C 653.089844 524.453125 654.539062 521.179688 655.417969 517.734375 L 655.621094 516.929688 L 655.785156 516.972656 L 675.304688 443.675781 L 668.128906 421.265625 L 674.671875 418.535156 C 688.800781 412.632812 695.476562 396.394531 689.582031 382.257812 C 689.578125 382.25 689.570312 382.238281 689.566406 382.222656 L 689.5625 382.21875 " fill-opacity="1" fill-rule="nonzero"/></g><path fill="#ffffff" d="M 256.585938 628.476562 L 268.527344 622.316406 L 284.042969 652.417969 L 272.101562 658.578125 L 256.585938 628.476562 " fill-opacity="1" fill-rule="nonzero"/><path fill="#ffffff" d="M 159.847656 652.417969 L 175.363281 622.316406 L 187.3125 628.476562 L 171.792969 658.578125 L 159.847656 652.417969 " fill-opacity="1" fill-rule="nonzero"/><g clip-path="url(#39cc191278)"><path fill="#ffffff" d="M 214.800781 676.015625 L 215.65625 642.160156 L 229.089844 642.496094 L 228.234375 676.359375 L 214.800781 676.015625 " fill-opacity="1" fill-rule="nonzero"/></g><path fill="#ffffff" d="M 540.949219 121.101562 L 552.898438 114.945312 L 568.414062 145.050781 L 556.464844 151.203125 L 540.949219 121.101562 " fill-opacity="1" fill-rule="nonzero"/><path fill="#ffffff" d="M 637.6875 145.042969 L 653.203125 114.941406 L 665.148438 121.101562 L 649.628906 151.203125 L 637.6875 145.042969 " fill-opacity="1" fill-rule="nonzero"/><path fill="#ffffff" d="M 595.910156 131.023438 L 596.761719 97.167969 L 610.195312 97.503906 L 609.34375 131.359375 L 595.910156 131.023438 " fill-opacity="1" fill-rule="nonzero"/></svg>